<svg width="1920" height="474" viewBox="0 0 1920 474" fill="none" xmlns="http://www.w3.org/2000/svg" xmlns:xlink="http://www.w3.org/1999/xlink">
<rect width="1920" height="474" fill="url(#paint0_linear_26_2)"/>
<rect width="1920" height="474" fill="url(#pattern0_26_2)" fill-opacity="0.25"/>
<path d="M522.977 118.667L365.981 140.732C355.142 142.255 347.591 152.276 349.114 163.114L374.626 344.641C376.149 355.479 386.17 363.031 397.009 361.508L554.005 339.443C564.843 337.92 572.395 327.899 570.871 317.061L545.359 135.534C543.836 124.696 533.815 117.144 522.977 118.667Z" fill="#2D3E82"/>
<path d="M653.092 128.346L496.096 106.281C485.258 104.758 475.236 112.31 473.713 123.148L448.201 304.675C446.678 315.513 454.229 325.534 465.068 327.057L622.064 349.122C632.902 350.645 642.923 343.094 644.447 332.255L669.958 150.728C671.482 139.89 663.93 129.869 653.092 128.346Z" fill="#FF8000"/>
<mask id="mask0_26_2" style="mask-type:luminance" maskUnits="userSpaceOnUse" x="448" y="106" width="223" height="244">
<path d="M653.092 128.346L496.096 106.281C485.258 104.758 475.236 112.31 473.713 123.148L448.201 304.675C446.678 315.513 454.229 325.534 465.068 327.057L622.064 349.122C632.902 350.645 642.923 343.094 644.447 332.255L669.958 150.728C671.482 139.89 663.93 129.869 653.092 128.346Z" fill="white"/>
</mask>
<g mask="url(#mask0_26_2)">
<path d="M515.72 109.04L476.471 103.524L470.266 147.679L509.515 153.195L515.72 109.04Z" fill="#FF8000"/>
<path d="M594.218 120.072L554.969 114.556L548.764 158.711L588.013 164.227L594.218 120.072Z" fill="#FF8000"/>
<path d="M672.716 131.104L633.467 125.588L627.262 169.743L666.511 175.259L672.716 131.104Z" fill="#FF8000"/>
<path d="M548.764 158.711L509.515 153.195L503.309 197.35L542.558 202.866L548.764 158.711Z" fill="#FF8000"/>
<path d="M627.262 169.743L588.013 164.227L581.807 208.382L621.056 213.898L627.262 169.743Z" fill="#FF8000"/>
<path d="M503.309 197.35L464.06 191.834L457.854 235.989L497.103 241.505L503.309 197.35Z" fill="#FF8000"/>
<path d="M581.807 208.382L542.558 202.866L536.353 247.021L575.602 252.537L581.807 208.382Z" fill="#FF8000"/>
<path d="M660.305 219.414L621.056 213.898L614.851 258.053L654.1 263.569L660.305 219.414Z" fill="#FF8000"/>
<path d="M536.353 247.021L497.104 241.505L490.898 285.66L530.147 291.177L536.353 247.021Z" fill="#FF8000"/>
<path d="M614.851 258.053L575.602 252.537L569.396 296.693L608.645 302.209L614.851 258.053Z" fill="#FF8000"/>
<path d="M490.898 285.661L451.649 280.144L445.443 324.3L484.692 329.816L490.898 285.661Z" fill="#FF8000"/>
<path d="M569.396 296.692L530.147 291.176L523.941 335.331L563.19 340.847L569.396 296.692Z" fill="#FF8000"/>
<path d="M647.894 307.725L608.645 302.209L602.439 346.364L641.688 351.88L647.894 307.725Z" fill="#FF8000"/>
<path d="M554.969 114.556L515.72 109.04L509.515 153.195L548.764 158.711L554.969 114.556Z" fill="#FFA64D"/>
<path d="M633.468 125.588L594.219 120.072L588.013 164.227L627.262 169.743L633.468 125.588Z" fill="#FFA64D"/>
<path d="M509.515 153.195L470.266 147.679L464.06 191.834L503.309 197.35L509.515 153.195Z" fill="#FFA64D"/>
<path d="M588.013 164.227L548.764 158.711L542.558 202.866L581.807 208.382L588.013 164.227Z" fill="#FFA64D"/>
<path d="M666.511 175.259L627.262 169.743L621.056 213.898L660.305 219.414L666.511 175.259Z" fill="#FFA64D"/>
<path d="M542.558 202.866L503.309 197.35L497.103 241.505L536.353 247.021L542.558 202.866Z" fill="#FFA64D"/>
<path d="M621.056 213.898L581.807 208.382L575.602 252.537L614.851 258.053L621.056 213.898Z" fill="#FFA64D"/>
<path d="M497.103 241.505L457.854 235.989L451.649 280.144L490.898 285.66L497.103 241.505Z" fill="#FFA64D"/>
<path d="M575.601 252.537L536.352 247.021L530.147 291.177L569.396 296.693L575.601 252.537Z" fill="#FFA64D"/>
<path d="M654.1 263.569L614.851 258.053L608.645 302.209L647.894 307.725L654.1 263.569Z" fill="#FFA64D"/>
<path d="M530.147 291.176L490.898 285.66L484.692 329.815L523.941 335.331L530.147 291.176Z" fill="#FFA64D"/>
<path d="M608.645 302.209L569.396 296.693L563.19 340.848L602.439 346.364L608.645 302.209Z" fill="#FFA64D"/>
</g>
<path d="M588.981 281.934L603.739 301.519L641.49 264.299" stroke="white" stroke-width="14.6484" stroke-linecap="round" stroke-linejoin="round"/>
<path d="M799.151 211.754V155.69H821.27C825.522 155.69 829.145 156.502 832.138 158.126C835.131 159.732 837.412 161.968 838.982 164.833C840.569 167.68 841.363 170.965 841.363 174.688C841.363 178.411 840.56 181.696 838.954 184.543C837.348 187.39 835.021 189.607 831.974 191.195C828.944 192.783 825.276 193.577 820.969 193.577H806.871V184.078H819.053C821.334 184.078 823.214 183.685 824.692 182.901C826.188 182.098 827.302 180.993 828.032 179.588C828.78 178.165 829.154 176.531 829.154 174.688C829.154 172.827 828.78 171.202 828.032 169.815C827.302 168.41 826.188 167.324 824.692 166.558C823.195 165.773 821.297 165.381 818.998 165.381H811.005V211.754H799.151ZM848.844 211.754V169.706H860.505V211.754H848.844ZM854.702 164.286C852.968 164.286 851.481 163.711 850.24 162.561C849.017 161.393 848.406 159.997 848.406 158.373C848.406 156.767 849.017 155.389 850.24 154.239C851.481 153.071 852.968 152.487 854.702 152.487C856.435 152.487 857.914 153.071 859.136 154.239C860.377 155.389 860.998 156.767 860.998 158.373C860.998 159.997 860.377 161.393 859.136 162.561C857.914 163.711 856.435 164.286 854.702 164.286ZM879.592 169.706L887.312 184.406L895.223 169.706H907.186L895.004 190.73L907.515 211.754H895.607L887.312 197.218L879.154 211.754H867.109L879.592 190.73L867.547 169.706H879.592ZM931.769 212.575C927.444 212.575 923.721 211.699 920.6 209.947C917.498 208.177 915.107 205.677 913.428 202.446C911.749 199.198 910.909 195.356 910.909 190.921C910.909 186.596 911.749 182.8 913.428 179.533C915.107 176.267 917.47 173.721 920.518 171.896C923.584 170.071 927.179 169.158 931.304 169.158C934.078 169.158 936.66 169.606 939.051 170.5C941.46 171.376 943.558 172.699 945.347 174.469C947.154 176.239 948.559 178.466 949.563 181.149C950.566 183.813 951.068 186.934 951.068 190.511V193.714H915.563V186.487H940.091C940.091 184.808 939.726 183.32 938.996 182.025C938.266 180.729 937.253 179.716 935.957 178.986C934.68 178.238 933.192 177.864 931.495 177.864C929.725 177.864 928.155 178.274 926.787 179.095C925.436 179.898 924.378 180.984 923.611 182.353C922.845 183.704 922.452 185.209 922.434 186.87V193.741C922.434 195.822 922.817 197.619 923.584 199.134C924.369 200.649 925.473 201.817 926.896 202.638C928.32 203.459 930.008 203.87 931.961 203.87C933.256 203.87 934.443 203.687 935.519 203.322C936.596 202.957 937.518 202.41 938.284 201.68C939.051 200.95 939.635 200.056 940.036 198.997L950.822 199.709C950.274 202.3 949.152 204.563 947.455 206.498C945.776 208.414 943.604 209.911 940.94 210.987C938.293 212.046 935.236 212.575 931.769 212.575ZM970.34 155.69V211.754H958.679V155.69H970.34ZM979.901 211.754V155.69H1002.02C1006.27 155.69 1009.89 156.502 1012.89 158.126C1015.88 159.732 1018.16 161.968 1019.73 164.833C1021.32 167.68 1022.11 170.965 1022.11 174.688C1022.11 178.411 1021.31 181.696 1019.7 184.543C1018.1 187.39 1015.77 189.607 1012.72 191.195C1009.69 192.783 1006.03 193.577 1001.72 193.577H987.621V184.078H999.803C1002.08 184.078 1003.96 183.685 1005.44 182.901C1006.94 182.098 1008.05 180.993 1008.78 179.588C1009.53 178.165 1009.9 176.531 1009.9 174.688C1009.9 172.827 1009.53 171.202 1008.78 169.815C1008.05 168.41 1006.94 167.324 1005.44 166.558C1003.95 165.773 1002.05 165.381 999.748 165.381H991.754V211.754H979.901ZM1048.08 212.575C1043.75 212.575 1040.03 211.699 1036.91 209.947C1033.81 208.177 1031.42 205.677 1029.74 202.446C1028.06 199.198 1027.22 195.356 1027.22 190.921C1027.22 186.596 1028.06 182.8 1029.74 179.533C1031.42 176.267 1033.78 173.721 1036.83 171.896C1039.89 170.071 1043.49 169.158 1047.61 169.158C1050.39 169.158 1052.97 169.606 1055.36 170.5C1057.77 171.376 1059.87 172.699 1061.66 174.469C1063.46 176.239 1064.87 178.466 1065.87 181.149C1066.88 183.813 1067.38 186.934 1067.38 190.511V193.714H1031.87V186.487H1056.4C1056.4 184.808 1056.04 183.32 1055.31 182.025C1054.58 180.729 1053.56 179.716 1052.27 178.986C1050.99 178.238 1049.5 177.864 1047.8 177.864C1046.03 177.864 1044.46 178.274 1043.1 179.095C1041.75 179.898 1040.69 180.984 1039.92 182.353C1039.15 183.704 1038.76 185.209 1038.74 186.87V193.741C1038.74 195.822 1039.13 197.619 1039.89 199.134C1040.68 200.649 1041.78 201.817 1043.21 202.638C1044.63 203.459 1046.32 203.87 1048.27 203.87C1049.57 203.87 1050.75 203.687 1051.83 203.322C1052.91 202.957 1053.83 202.41 1054.59 201.68C1055.36 200.95 1055.94 200.056 1056.35 198.997L1067.13 199.709C1066.58 202.3 1065.46 204.563 1063.76 206.498C1062.09 208.414 1059.91 209.911 1057.25 210.987C1054.6 212.046 1051.55 212.575 1048.08 212.575ZM1074.99 211.754V169.706H1086.29V177.042H1086.73C1087.5 174.433 1088.78 172.462 1090.59 171.129C1092.4 169.779 1094.48 169.104 1096.83 169.104C1097.42 169.104 1098.05 169.14 1098.72 169.213C1099.4 169.286 1099.99 169.387 1100.5 169.514V179.862C1099.95 179.698 1099.2 179.552 1098.23 179.424C1097.26 179.296 1096.38 179.232 1095.57 179.232C1093.86 179.232 1092.33 179.606 1090.97 180.355C1089.64 181.085 1088.58 182.107 1087.8 183.421C1087.03 184.735 1086.65 186.249 1086.65 187.965V211.754H1074.99ZM1131.25 169.706V178.466H1105.3V169.706H1131.25ZM1111.24 211.754V166.667C1111.24 163.62 1111.83 161.092 1113.02 159.084C1114.22 157.077 1115.87 155.571 1117.95 154.568C1120.03 153.564 1122.39 153.062 1125.04 153.062C1126.82 153.062 1128.46 153.199 1129.94 153.473C1131.43 153.746 1132.55 153.993 1133.28 154.212L1131.2 162.972C1130.74 162.826 1130.17 162.689 1129.5 162.561C1128.84 162.433 1128.17 162.369 1127.47 162.369C1125.76 162.369 1124.56 162.771 1123.89 163.574C1123.21 164.359 1122.87 165.463 1122.87 166.886V211.754H1111.24ZM1156.03 212.575C1151.71 212.575 1147.98 211.699 1144.86 209.947C1141.76 208.177 1139.37 205.677 1137.69 202.446C1136.01 199.198 1135.17 195.356 1135.17 190.921C1135.17 186.596 1136.01 182.8 1137.69 179.533C1139.37 176.267 1141.73 173.721 1144.78 171.896C1147.85 170.071 1151.44 169.158 1155.57 169.158C1158.34 169.158 1160.92 169.606 1163.31 170.5C1165.72 171.376 1167.82 172.699 1169.61 174.469C1171.42 176.239 1172.82 178.466 1173.82 181.149C1174.83 183.813 1175.33 186.934 1175.33 190.511V193.714H1139.83V186.487H1164.35C1164.35 184.808 1163.99 183.32 1163.26 182.025C1162.53 180.729 1161.52 179.716 1160.22 178.986C1158.94 178.238 1157.45 177.864 1155.76 177.864C1153.99 177.864 1152.42 178.274 1151.05 179.095C1149.7 179.898 1148.64 180.984 1147.87 182.353C1147.11 183.704 1146.71 185.209 1146.7 186.87V193.741C1146.7 195.822 1147.08 197.619 1147.85 199.134C1148.63 200.649 1149.73 201.817 1151.16 202.638C1152.58 203.459 1154.27 203.87 1156.22 203.87C1157.52 203.87 1158.7 203.687 1159.78 203.322C1160.86 202.957 1161.78 202.41 1162.55 201.68C1163.31 200.95 1163.9 200.056 1164.3 198.997L1175.08 199.709C1174.54 202.3 1173.41 204.563 1171.72 206.498C1170.04 208.414 1167.87 209.911 1165.2 210.987C1162.56 212.046 1159.5 212.575 1156.03 212.575ZM1201.94 212.575C1197.63 212.575 1193.93 211.663 1190.82 209.838C1187.74 207.994 1185.37 205.439 1183.71 202.173C1182.06 198.906 1181.24 195.146 1181.24 190.894C1181.24 186.587 1182.07 182.809 1183.73 179.561C1185.41 176.294 1187.8 173.748 1190.88 171.923C1193.96 170.08 1197.63 169.158 1201.88 169.158C1205.55 169.158 1208.76 169.825 1211.52 171.157C1214.28 172.489 1216.46 174.36 1218.06 176.769C1219.67 179.178 1220.55 182.006 1220.72 185.255H1209.71C1209.4 183.156 1208.58 181.468 1207.25 180.19C1205.94 178.895 1204.21 178.247 1202.08 178.247C1200.27 178.247 1198.69 178.74 1197.34 179.725C1196.01 180.692 1194.97 182.107 1194.22 183.968C1193.47 185.83 1193.1 188.084 1193.1 190.73C1193.1 193.413 1193.46 195.694 1194.19 197.574C1194.94 199.453 1195.99 200.886 1197.34 201.871C1198.69 202.857 1200.27 203.35 1202.08 203.35C1203.41 203.35 1204.6 203.076 1205.66 202.528C1206.74 201.981 1207.62 201.187 1208.32 200.147C1209.03 199.088 1209.49 197.82 1209.71 196.342H1220.72C1220.54 199.554 1219.66 202.382 1218.09 204.828C1216.54 207.255 1214.39 209.153 1211.66 210.522C1208.92 211.891 1205.68 212.575 1201.94 212.575ZM1250.55 169.706V178.466H1225.23V169.706H1250.55ZM1230.98 159.632H1242.64V198.833C1242.64 199.91 1242.8 200.749 1243.13 201.351C1243.46 201.935 1243.92 202.346 1244.5 202.583C1245.1 202.82 1245.8 202.939 1246.58 202.939C1247.13 202.939 1247.68 202.893 1248.22 202.802C1248.77 202.693 1249.19 202.611 1249.48 202.556L1251.32 211.234C1250.73 211.416 1249.91 211.626 1248.85 211.863C1247.79 212.119 1246.51 212.274 1244.99 212.329C1242.18 212.438 1239.72 212.064 1237.6 211.206C1235.5 210.349 1233.87 209.016 1232.7 207.21C1231.53 205.403 1230.96 203.122 1230.98 200.366V159.632ZM1276.21 211.754V155.69H1298.33C1302.58 155.69 1306.2 156.502 1309.19 158.126C1312.19 159.732 1314.47 161.968 1316.04 164.833C1317.63 167.68 1318.42 170.965 1318.42 174.688C1318.42 178.411 1317.62 181.696 1316.01 184.543C1314.4 187.39 1312.08 189.607 1309.03 191.195C1306 192.783 1302.33 193.577 1298.02 193.577H1283.93V184.078H1296.11C1298.39 184.078 1300.27 183.685 1301.75 182.901C1303.24 182.098 1304.36 180.993 1305.09 179.588C1305.84 178.165 1306.21 176.531 1306.21 174.688C1306.21 172.827 1305.84 171.202 1305.09 169.815C1304.36 168.41 1303.24 167.324 1301.75 166.558C1300.25 165.773 1298.35 165.381 1296.05 165.381H1288.06V211.754H1276.21ZM1326.12 211.754V155.69H1348.24C1352.49 155.69 1356.11 156.502 1359.11 158.126C1362.1 159.732 1364.38 161.968 1365.95 164.833C1367.54 167.68 1368.33 170.965 1368.33 174.688C1368.33 178.411 1367.53 181.696 1365.92 184.543C1364.32 187.39 1361.99 189.607 1358.94 191.195C1355.91 192.783 1352.24 193.577 1347.94 193.577H1333.84V184.078H1346.02C1348.3 184.078 1350.18 183.685 1351.66 182.901C1353.16 182.098 1354.27 180.993 1355 179.588C1355.75 178.165 1356.12 176.531 1356.12 174.688C1356.12 172.827 1355.75 171.202 1355 169.815C1354.27 168.41 1353.16 167.324 1351.66 166.558C1350.16 165.773 1348.26 165.381 1345.97 165.381H1337.97V211.754H1326.12ZM1373.89 165.463V155.69H1419.94V165.463H1402.78V211.754H1391.06V165.463H1373.89Z" fill="black"/>
<path d="M797.673 295.203V267.171H814.591V270.183H801.067V279.654H813.715V282.666H801.067V292.192H814.81V295.203H797.673ZM822.68 274.179L827.717 282.775L832.754 274.179H836.477L829.688 284.691L836.477 295.203H832.754L827.717 287.046L822.68 295.203H818.957L825.636 284.691L818.957 274.179H822.68ZM841.086 303.087V274.179H844.207V277.519H844.59C844.827 277.154 845.156 276.689 845.576 276.123C846.004 275.548 846.616 275.037 847.41 274.59C848.213 274.134 849.299 273.906 850.667 273.906C852.438 273.906 853.998 274.348 855.348 275.233C856.699 276.118 857.753 277.373 858.51 278.997C859.268 280.622 859.646 282.538 859.646 284.746C859.646 286.973 859.268 288.903 858.51 290.536C857.753 292.16 856.704 293.419 855.362 294.314C854.021 295.199 852.474 295.641 850.722 295.641C849.372 295.641 848.29 295.418 847.478 294.971C846.666 294.514 846.041 293.999 845.603 293.424C845.165 292.84 844.827 292.356 844.59 291.973H844.316V303.087H841.086ZM844.262 284.691C844.262 286.279 844.494 287.68 844.96 288.893C845.425 290.098 846.105 291.042 846.999 291.727C847.893 292.402 848.988 292.74 850.284 292.74C851.635 292.74 852.762 292.384 853.665 291.672C854.577 290.951 855.262 289.984 855.718 288.77C856.183 287.548 856.416 286.188 856.416 284.691C856.416 283.213 856.188 281.881 855.732 280.695C855.285 279.499 854.605 278.555 853.692 277.861C852.789 277.159 851.653 276.807 850.284 276.807C848.97 276.807 847.866 277.14 846.972 277.807C846.077 278.464 845.402 279.385 844.946 280.571C844.49 281.749 844.262 283.122 844.262 284.691ZM873.115 295.641C871.217 295.641 869.551 295.19 868.119 294.286C866.695 293.383 865.582 292.119 864.779 290.495C863.985 288.871 863.588 286.973 863.588 284.801C863.588 282.611 863.985 280.699 864.779 279.066C865.582 277.432 866.695 276.164 868.119 275.261C869.551 274.357 871.217 273.906 873.115 273.906C875.013 273.906 876.674 274.357 878.097 275.261C879.53 276.164 880.643 277.432 881.437 279.066C882.24 280.699 882.641 282.611 882.641 284.801C882.641 286.973 882.24 288.871 881.437 290.495C880.643 292.119 879.53 293.383 878.097 294.286C876.674 295.19 875.013 295.641 873.115 295.641ZM873.115 292.74C874.557 292.74 875.743 292.37 876.674 291.631C877.604 290.892 878.293 289.92 878.74 288.716C879.187 287.511 879.411 286.206 879.411 284.801C879.411 283.396 879.187 282.086 878.74 280.873C878.293 279.659 877.604 278.678 876.674 277.93C875.743 277.182 874.557 276.807 873.115 276.807C871.673 276.807 870.487 277.182 869.556 277.93C868.625 278.678 867.936 279.659 867.489 280.873C867.042 282.086 866.819 283.396 866.819 284.801C866.819 286.206 867.042 287.511 867.489 288.716C867.936 289.92 868.625 290.892 869.556 291.631C870.487 292.37 871.673 292.74 873.115 292.74ZM887.572 295.203V274.179H890.693V277.355H890.912C891.295 276.315 891.989 275.471 892.992 274.823C893.996 274.175 895.128 273.851 896.387 273.851C896.624 273.851 896.921 273.855 897.277 273.865C897.632 273.874 897.902 273.887 898.084 273.906V277.191C897.975 277.163 897.724 277.122 897.331 277.067C896.948 277.004 896.542 276.972 896.113 276.972C895.091 276.972 894.179 277.186 893.376 277.615C892.582 278.035 891.952 278.619 891.487 279.367C891.031 280.106 890.802 280.95 890.802 281.899V295.203H887.572ZM912.374 274.179V276.917H901.479V274.179H912.374ZM904.654 269.142H907.884V289.181C907.884 290.093 908.017 290.778 908.281 291.234C908.555 291.681 908.902 291.982 909.322 292.137C909.75 292.283 910.202 292.356 910.677 292.356C911.032 292.356 911.324 292.338 911.553 292.302C911.781 292.256 911.963 292.22 912.1 292.192L912.757 295.094C912.538 295.176 912.232 295.258 911.84 295.34C911.448 295.431 910.95 295.477 910.348 295.477C909.436 295.477 908.541 295.281 907.665 294.889C906.799 294.496 906.078 293.898 905.503 293.096C904.937 292.293 904.654 291.28 904.654 290.057V269.142ZM928.511 295.203V267.171H945.32V270.183H931.906V279.654H944.06V282.666H931.906V295.203H928.511ZM950.695 295.203V274.179H953.926V295.203H950.695ZM952.338 270.675C951.708 270.675 951.165 270.461 950.709 270.032C950.262 269.603 950.038 269.088 950.038 268.485C950.038 267.883 950.262 267.368 950.709 266.939C951.165 266.51 951.708 266.295 952.338 266.295C952.967 266.295 953.506 266.51 953.953 266.939C954.409 267.368 954.637 267.883 954.637 268.485C954.637 269.088 954.409 269.603 953.953 270.032C953.506 270.461 952.967 270.675 952.338 270.675ZM968.328 303.525C966.768 303.525 965.426 303.325 964.304 302.923C963.182 302.531 962.246 302.011 961.498 301.363C960.759 300.724 960.17 300.04 959.732 299.31L962.306 297.503C962.598 297.886 962.967 298.324 963.414 298.817C963.862 299.319 964.473 299.752 965.249 300.117C966.033 300.491 967.06 300.678 968.328 300.678C970.025 300.678 971.426 300.268 972.53 299.446C973.634 298.625 974.186 297.339 974.186 295.587V291.316H973.913C973.675 291.699 973.338 292.174 972.9 292.74C972.471 293.296 971.85 293.794 971.038 294.232C970.235 294.66 969.149 294.875 967.781 294.875C966.083 294.875 964.56 294.473 963.209 293.67C961.868 292.867 960.805 291.699 960.02 290.166C959.244 288.633 958.856 286.772 958.856 284.582C958.856 282.428 959.235 280.553 959.993 278.956C960.75 277.35 961.804 276.109 963.154 275.233C964.505 274.348 966.065 273.906 967.835 273.906C969.204 273.906 970.29 274.134 971.093 274.59C971.905 275.037 972.526 275.548 972.955 276.123C973.393 276.689 973.73 277.154 973.967 277.519H974.296V274.179H977.417V295.806C977.417 297.612 977.006 299.081 976.185 300.213C975.373 301.354 974.278 302.189 972.9 302.718C971.531 303.256 970.007 303.525 968.328 303.525ZM968.219 291.973C969.514 291.973 970.609 291.677 971.504 291.083C972.398 290.49 973.078 289.637 973.543 288.524C974.008 287.411 974.241 286.078 974.241 284.527C974.241 283.012 974.013 281.676 973.557 280.517C973.101 279.358 972.425 278.45 971.531 277.793C970.637 277.136 969.533 276.807 968.219 276.807C966.85 276.807 965.709 277.154 964.797 277.848C963.893 278.541 963.214 279.472 962.757 280.64C962.31 281.808 962.087 283.104 962.087 284.527C962.087 285.987 962.315 287.278 962.771 288.401C963.236 289.514 963.921 290.39 964.824 291.029C965.737 291.658 966.868 291.973 968.219 291.973ZM983.33 295.203V274.179H986.45V277.464H986.724C987.162 276.342 987.869 275.471 988.846 274.85C989.822 274.22 990.995 273.906 992.363 273.906C993.75 273.906 994.905 274.22 995.826 274.85C996.757 275.471 997.482 276.342 998.003 277.464H998.222C998.76 276.379 999.568 275.516 1000.64 274.877C1001.72 274.23 1003.01 273.906 1004.52 273.906C1006.4 273.906 1007.94 274.494 1009.13 275.671C1010.33 276.839 1010.92 278.66 1010.92 281.133V295.203H1007.69V281.133C1007.69 279.581 1007.27 278.473 1006.42 277.807C1005.57 277.14 1004.57 276.807 1003.42 276.807C1001.94 276.807 1000.8 277.255 999.987 278.149C999.175 279.034 998.769 280.156 998.769 281.516V295.203H995.484V280.804C995.484 279.609 995.096 278.646 994.321 277.916C993.545 277.177 992.546 276.807 991.323 276.807C990.484 276.807 989.699 277.031 988.969 277.478C988.248 277.925 987.664 278.546 987.217 279.34C986.779 280.124 986.56 281.032 986.56 282.063V295.203H983.33ZM1023.02 295.696C1021.68 295.696 1020.48 295.445 1019.39 294.943C1018.3 294.432 1017.44 293.698 1016.8 292.74C1016.16 291.772 1015.84 290.604 1015.84 289.236C1015.84 288.031 1016.08 287.055 1016.56 286.307C1017.03 285.549 1017.66 284.956 1018.46 284.527C1019.25 284.098 1020.13 283.779 1021.09 283.569C1022.05 283.35 1023.03 283.177 1024 283.049C1025.28 282.885 1026.32 282.761 1027.11 282.679C1027.91 282.588 1028.5 282.438 1028.86 282.228C1029.24 282.018 1029.42 281.653 1029.42 281.133V281.023C1029.42 279.673 1029.05 278.623 1028.31 277.875C1027.58 277.127 1026.47 276.753 1024.99 276.753C1023.45 276.753 1022.24 277.09 1021.36 277.766C1020.48 278.441 1019.87 279.162 1019.51 279.928L1016.45 278.833C1016.99 277.556 1017.72 276.561 1018.64 275.849C1019.56 275.128 1020.56 274.627 1021.65 274.344C1022.74 274.052 1023.82 273.906 1024.88 273.906C1025.55 273.906 1026.33 273.988 1027.2 274.152C1028.09 274.307 1028.94 274.631 1029.76 275.124C1030.59 275.617 1031.28 276.36 1031.83 277.355C1032.38 278.35 1032.65 279.682 1032.65 281.352V295.203H1029.42V292.356H1029.26C1029.04 292.813 1028.67 293.301 1028.16 293.821C1027.65 294.341 1026.97 294.784 1026.12 295.149C1025.27 295.514 1024.24 295.696 1023.02 295.696ZM1023.51 292.794C1024.79 292.794 1025.86 292.543 1026.74 292.042C1027.62 291.54 1028.29 290.892 1028.74 290.098C1029.19 289.304 1029.42 288.469 1029.42 287.593V284.637C1029.29 284.801 1028.98 284.951 1028.52 285.088C1028.06 285.216 1027.53 285.33 1026.93 285.431C1026.34 285.522 1025.76 285.604 1025.19 285.677C1024.64 285.741 1024.18 285.796 1023.84 285.841C1023 285.951 1022.21 286.129 1021.48 286.375C1020.76 286.612 1020.18 286.973 1019.73 287.456C1019.29 287.931 1019.07 288.579 1019.07 289.4C1019.07 290.522 1019.49 291.371 1020.32 291.946C1021.16 292.512 1022.22 292.794 1023.51 292.794ZM1065.16 274.179C1064.99 272.792 1064.33 271.716 1063.16 270.949C1061.99 270.183 1060.56 269.799 1058.86 269.799C1057.62 269.799 1056.53 270 1055.6 270.402C1054.68 270.803 1053.96 271.355 1053.44 272.058C1052.93 272.76 1052.67 273.559 1052.67 274.453C1052.67 275.201 1052.85 275.845 1053.21 276.383C1053.57 276.912 1054.04 277.355 1054.6 277.711C1055.17 278.058 1055.76 278.345 1056.38 278.573C1057 278.792 1057.57 278.97 1058.09 279.107L1060.94 279.873C1061.67 280.065 1062.48 280.33 1063.38 280.667C1064.28 281.005 1065.14 281.466 1065.96 282.05C1066.79 282.625 1067.48 283.364 1068.02 284.267C1068.56 285.17 1068.82 286.279 1068.82 287.593C1068.82 289.108 1068.43 290.477 1067.63 291.699C1066.85 292.922 1065.7 293.894 1064.18 294.615C1062.68 295.336 1060.85 295.696 1058.7 295.696C1056.69 295.696 1054.95 295.372 1053.48 294.724C1052.02 294.076 1050.87 293.173 1050.03 292.014C1049.2 290.855 1048.73 289.509 1048.62 287.976H1052.13C1052.22 289.035 1052.57 289.911 1053.19 290.604C1053.82 291.289 1054.62 291.8 1055.58 292.137C1056.54 292.466 1057.58 292.63 1058.7 292.63C1059.99 292.63 1061.16 292.42 1062.19 292.001C1063.22 291.572 1064.03 290.979 1064.64 290.221C1065.24 289.455 1065.54 288.56 1065.54 287.538C1065.54 286.608 1065.28 285.85 1064.76 285.266C1064.24 284.682 1063.56 284.208 1062.71 283.843C1061.86 283.478 1060.94 283.158 1059.96 282.885L1056.51 281.899C1054.32 281.27 1052.58 280.371 1051.31 279.203C1050.03 278.035 1049.39 276.506 1049.39 274.617C1049.39 273.048 1049.81 271.679 1050.66 270.511C1051.52 269.334 1052.67 268.422 1054.11 267.774C1055.56 267.117 1057.18 266.788 1058.97 266.788C1060.78 266.788 1062.38 267.112 1063.79 267.76C1065.19 268.399 1066.31 269.275 1067.13 270.388C1067.96 271.501 1068.4 272.765 1068.44 274.179H1065.16ZM1077.2 267.171V295.203H1073.97V267.171H1077.2ZM1083.11 295.203V274.179H1086.34V295.203H1083.11ZM1084.76 270.675C1084.13 270.675 1083.58 270.461 1083.13 270.032C1082.68 269.603 1082.46 269.088 1082.46 268.485C1082.46 267.883 1082.68 267.368 1083.13 266.939C1083.58 266.51 1084.13 266.295 1084.76 266.295C1085.39 266.295 1085.93 266.51 1086.37 266.939C1086.83 267.368 1087.06 267.883 1087.06 268.485C1087.06 269.088 1086.83 269.603 1086.37 270.032C1085.93 270.461 1085.39 270.675 1084.76 270.675ZM1100.2 295.641C1098.45 295.641 1096.9 295.199 1095.56 294.314C1094.22 293.419 1093.17 292.16 1092.41 290.536C1091.65 288.903 1091.28 286.973 1091.28 284.746C1091.28 282.538 1091.65 280.622 1092.41 278.997C1093.17 277.373 1094.22 276.118 1095.57 275.233C1096.92 274.348 1098.48 273.906 1100.25 273.906C1101.62 273.906 1102.7 274.134 1103.5 274.59C1104.3 275.037 1104.91 275.548 1105.33 276.123C1105.76 276.689 1106.09 277.154 1106.33 277.519H1106.61V267.171H1109.84V295.203H1106.72V291.973H1106.33C1106.09 292.356 1105.76 292.84 1105.32 293.424C1104.88 293.999 1104.26 294.514 1103.44 294.971C1102.63 295.418 1101.55 295.641 1100.2 295.641ZM1100.64 292.74C1101.93 292.74 1103.03 292.402 1103.92 291.727C1104.82 291.042 1105.5 290.098 1105.96 288.893C1106.43 287.68 1106.66 286.279 1106.66 284.691C1106.66 283.122 1106.43 281.749 1105.98 280.571C1105.52 279.385 1104.84 278.464 1103.95 277.807C1103.06 277.14 1101.95 276.807 1100.64 276.807C1099.27 276.807 1098.13 277.159 1097.22 277.861C1096.31 278.555 1095.63 279.499 1095.18 280.695C1094.73 281.881 1094.51 283.213 1094.51 284.691C1094.51 286.188 1094.73 287.548 1095.19 288.77C1095.66 289.984 1096.34 290.951 1097.24 291.672C1098.16 292.384 1099.29 292.74 1100.64 292.74ZM1125.02 295.641C1122.99 295.641 1121.24 295.194 1119.77 294.3C1118.31 293.397 1117.19 292.137 1116.39 290.522C1115.61 288.898 1115.22 287.009 1115.22 284.856C1115.22 282.702 1115.61 280.804 1116.39 279.162C1117.19 277.51 1118.29 276.223 1119.7 275.302C1121.13 274.371 1122.79 273.906 1124.69 273.906C1125.78 273.906 1126.86 274.088 1127.93 274.453C1129 274.818 1129.97 275.411 1130.85 276.233C1131.72 277.045 1132.42 278.121 1132.94 279.463C1133.46 280.804 1133.72 282.456 1133.72 284.418V285.786H1117.51V282.994H1130.44C1130.44 281.808 1130.2 280.749 1129.72 279.819C1129.26 278.888 1128.59 278.153 1127.73 277.615C1126.87 277.077 1125.85 276.807 1124.69 276.807C1123.4 276.807 1122.29 277.127 1121.35 277.766C1120.42 278.395 1119.7 279.216 1119.2 280.229C1118.7 281.242 1118.45 282.328 1118.45 283.487V285.348C1118.45 286.936 1118.72 288.282 1119.27 289.386C1119.82 290.481 1120.59 291.316 1121.58 291.891C1122.57 292.457 1123.71 292.74 1125.02 292.74C1125.86 292.74 1126.63 292.621 1127.31 292.384C1128.01 292.137 1128.61 291.772 1129.11 291.289C1129.61 290.796 1130 290.185 1130.27 289.455L1133.39 290.331C1133.06 291.389 1132.51 292.32 1131.74 293.123C1130.96 293.917 1130 294.537 1128.86 294.984C1127.72 295.422 1126.44 295.641 1125.02 295.641ZM1153.53 278.888L1150.62 279.709C1150.44 279.226 1150.17 278.756 1149.82 278.299C1149.47 277.834 1149 277.451 1148.39 277.15C1147.79 276.848 1147.02 276.698 1146.08 276.698C1144.79 276.698 1143.72 276.994 1142.86 277.588C1142.02 278.172 1141.59 278.915 1141.59 279.819C1141.59 280.622 1141.88 281.256 1142.47 281.721C1143.05 282.187 1143.96 282.574 1145.2 282.885L1148.33 283.651C1150.2 284.107 1151.61 284.805 1152.53 285.745C1153.45 286.676 1153.91 287.876 1153.91 289.345C1153.91 290.55 1153.56 291.626 1152.87 292.575C1152.19 293.524 1151.23 294.273 1150 294.82C1148.76 295.368 1147.33 295.641 1145.7 295.641C1143.55 295.641 1141.78 295.176 1140.37 294.245C1138.97 293.314 1138.08 291.955 1137.7 290.166L1140.77 289.4C1141.06 290.531 1141.61 291.38 1142.43 291.946C1143.25 292.512 1144.32 292.794 1145.64 292.794C1147.15 292.794 1148.34 292.475 1149.23 291.836C1150.12 291.188 1150.57 290.413 1150.57 289.509C1150.57 288.779 1150.31 288.168 1149.8 287.675C1149.29 287.173 1148.51 286.799 1147.45 286.553L1143.95 285.732C1142.02 285.275 1140.61 284.568 1139.7 283.61C1138.81 282.643 1138.36 281.434 1138.36 279.983C1138.36 278.797 1138.69 277.747 1139.36 276.835C1140.04 275.922 1140.95 275.206 1142.11 274.686C1143.28 274.166 1144.6 273.906 1146.08 273.906C1148.16 273.906 1149.79 274.362 1150.98 275.274C1152.18 276.187 1153.02 277.391 1153.53 278.888ZM1175.8 295.696C1174.47 295.696 1173.26 295.445 1172.17 294.943C1171.09 294.432 1170.22 293.698 1169.59 292.74C1168.95 291.772 1168.63 290.604 1168.63 289.236C1168.63 288.031 1168.86 287.055 1169.34 286.307C1169.81 285.549 1170.45 284.956 1171.24 284.527C1172.04 284.098 1172.91 283.779 1173.87 283.569C1174.84 283.35 1175.81 283.177 1176.78 283.049C1178.06 282.885 1179.1 282.761 1179.89 282.679C1180.69 282.588 1181.28 282.438 1181.64 282.228C1182.02 282.018 1182.21 281.653 1182.21 281.133V281.023C1182.21 279.673 1181.84 278.623 1181.1 277.875C1180.37 277.127 1179.26 276.753 1177.77 276.753C1176.23 276.753 1175.02 277.09 1174.14 277.766C1173.27 278.441 1172.65 279.162 1172.3 279.928L1169.23 278.833C1169.78 277.556 1170.51 276.561 1171.42 275.849C1172.34 275.128 1173.34 274.627 1174.43 274.344C1175.53 274.052 1176.6 273.906 1177.66 273.906C1178.34 273.906 1179.11 273.988 1179.99 274.152C1180.87 274.307 1181.73 274.631 1182.55 275.124C1183.38 275.617 1184.07 276.36 1184.61 277.355C1185.16 278.35 1185.44 279.682 1185.44 281.352V295.203H1182.21V292.356H1182.04C1181.82 292.813 1181.46 293.301 1180.95 293.821C1180.43 294.341 1179.75 294.784 1178.91 295.149C1178.06 295.514 1177.02 295.696 1175.8 295.696ZM1176.29 292.794C1177.57 292.794 1178.65 292.543 1179.52 292.042C1180.41 291.54 1181.07 290.892 1181.52 290.098C1181.98 289.304 1182.21 288.469 1182.21 287.593V284.637C1182.07 284.801 1181.77 284.951 1181.3 285.088C1180.85 285.216 1180.32 285.33 1179.71 285.431C1179.12 285.522 1178.54 285.604 1177.98 285.677C1177.42 285.741 1176.97 285.796 1176.62 285.841C1175.78 285.951 1175 286.129 1174.27 286.375C1173.55 286.612 1172.96 286.973 1172.51 287.456C1172.08 287.931 1171.86 288.579 1171.86 289.4C1171.86 290.522 1172.27 291.371 1173.1 291.946C1173.94 292.512 1175.01 292.794 1176.29 292.794ZM1194.56 282.556V295.203H1191.33V274.179H1194.45V277.464H1194.73C1195.22 276.397 1195.97 275.539 1196.97 274.891C1197.97 274.234 1199.27 273.906 1200.86 273.906C1202.28 273.906 1203.53 274.198 1204.59 274.782C1205.66 275.357 1206.49 276.233 1207.09 277.41C1207.68 278.578 1207.98 280.056 1207.98 281.844V295.203H1204.74V282.063C1204.74 280.412 1204.32 279.125 1203.46 278.204C1202.6 277.273 1201.42 276.807 1199.93 276.807C1198.9 276.807 1197.97 277.031 1197.16 277.478C1196.36 277.925 1195.72 278.578 1195.26 279.435C1194.79 280.293 1194.56 281.333 1194.56 282.556ZM1221.82 295.641C1220.06 295.641 1218.52 295.199 1217.18 294.314C1215.84 293.419 1214.79 292.16 1214.03 290.536C1213.27 288.903 1212.89 286.973 1212.89 284.746C1212.89 282.538 1213.27 280.622 1214.03 278.997C1214.79 277.373 1215.84 276.118 1217.19 275.233C1218.54 274.348 1220.1 273.906 1221.87 273.906C1223.24 273.906 1224.32 274.134 1225.12 274.59C1225.92 275.037 1226.53 275.548 1226.95 276.123C1227.38 276.689 1227.71 277.154 1227.95 277.519H1228.22V267.171H1231.45V295.203H1228.33V291.973H1227.95C1227.71 292.356 1227.37 292.84 1226.94 293.424C1226.5 293.999 1225.87 294.514 1225.06 294.971C1224.25 295.418 1223.17 295.641 1221.82 295.641ZM1222.25 292.74C1223.55 292.74 1224.65 292.402 1225.54 291.727C1226.43 291.042 1227.11 290.098 1227.58 288.893C1228.04 287.68 1228.28 286.279 1228.28 284.691C1228.28 283.122 1228.05 281.749 1227.59 280.571C1227.14 279.385 1226.46 278.464 1225.57 277.807C1224.67 277.14 1223.57 276.807 1222.25 276.807C1220.89 276.807 1219.75 277.159 1218.83 277.861C1217.93 278.555 1217.25 279.499 1216.79 280.695C1216.35 281.881 1216.12 283.213 1216.12 284.691C1216.12 286.188 1216.35 287.548 1216.81 288.77C1217.27 289.984 1217.96 290.951 1218.86 291.672C1219.77 292.384 1220.9 292.74 1222.25 292.74ZM1257.75 295.203H1249.1V267.171H1258.13C1260.85 267.171 1263.18 267.733 1265.11 268.855C1267.04 269.968 1268.53 271.57 1269.56 273.659C1270.59 275.74 1271.11 278.231 1271.11 281.133C1271.11 284.053 1270.59 286.567 1269.54 288.674C1268.5 290.773 1266.99 292.388 1265 293.52C1263.01 294.642 1260.59 295.203 1257.75 295.203ZM1252.49 292.192H1257.53C1259.84 292.192 1261.77 291.745 1263.29 290.851C1264.81 289.957 1265.95 288.684 1266.7 287.032C1267.45 285.38 1267.82 283.414 1267.82 281.133C1267.82 278.87 1267.45 276.921 1266.71 275.288C1265.97 273.646 1264.87 272.386 1263.4 271.51C1261.93 270.625 1260.1 270.183 1257.91 270.183H1252.49V292.192ZM1285.18 295.641C1283.15 295.641 1281.4 295.194 1279.93 294.3C1278.47 293.397 1277.35 292.137 1276.55 290.522C1275.77 288.898 1275.38 287.009 1275.38 284.856C1275.38 282.702 1275.77 280.804 1276.55 279.162C1277.35 277.51 1278.45 276.223 1279.87 275.302C1281.29 274.371 1282.95 273.906 1284.85 273.906C1285.94 273.906 1287.02 274.088 1288.09 274.453C1289.16 274.818 1290.13 275.411 1291.01 276.233C1291.88 277.045 1292.58 278.121 1293.1 279.463C1293.62 280.804 1293.88 282.456 1293.88 284.418V285.786H1277.68V282.994H1290.6C1290.6 281.808 1290.36 280.749 1289.88 279.819C1289.42 278.888 1288.75 278.153 1287.89 277.615C1287.03 277.077 1286.02 276.807 1284.85 276.807C1283.56 276.807 1282.45 277.127 1281.51 277.766C1280.58 278.395 1279.86 279.216 1279.36 280.229C1278.86 281.242 1278.61 282.328 1278.61 283.487V285.348C1278.61 286.936 1278.88 288.282 1279.43 289.386C1279.98 290.481 1280.75 291.316 1281.74 291.891C1282.73 292.457 1283.87 292.74 1285.18 292.74C1286.02 292.74 1286.79 292.621 1287.48 292.384C1288.17 292.137 1288.77 291.772 1289.27 291.289C1289.77 290.796 1290.16 290.185 1290.43 289.455L1293.55 290.331C1293.22 291.389 1292.67 292.32 1291.9 293.123C1291.12 293.917 1290.16 294.537 1289.02 294.984C1287.88 295.422 1286.6 295.641 1285.18 295.641ZM1313.69 278.888L1310.79 279.709C1310.6 279.226 1310.33 278.756 1309.98 278.299C1309.63 277.834 1309.16 277.451 1308.55 277.15C1307.95 276.848 1307.18 276.698 1306.24 276.698C1304.95 276.698 1303.88 276.994 1303.02 277.588C1302.18 278.172 1301.75 278.915 1301.75 279.819C1301.75 280.622 1302.04 281.256 1302.63 281.721C1303.21 282.187 1304.12 282.574 1305.36 282.885L1308.49 283.651C1310.37 284.107 1311.77 284.805 1312.69 285.745C1313.61 286.676 1314.07 287.876 1314.07 289.345C1314.07 290.55 1313.72 291.626 1313.03 292.575C1312.35 293.524 1311.39 294.273 1310.16 294.82C1308.92 295.368 1307.49 295.641 1305.86 295.641C1303.71 295.641 1301.94 295.176 1300.53 294.245C1299.13 293.314 1298.24 291.955 1297.86 290.166L1300.93 289.4C1301.22 290.531 1301.77 291.38 1302.59 291.946C1303.41 292.512 1304.48 292.794 1305.8 292.794C1307.31 292.794 1308.5 292.475 1309.39 291.836C1310.28 291.188 1310.73 290.413 1310.73 289.509C1310.73 288.779 1310.47 288.168 1309.96 287.675C1309.45 287.173 1308.67 286.799 1307.61 286.553L1304.11 285.732C1302.18 285.275 1300.77 284.568 1299.86 283.61C1298.97 282.643 1298.52 281.434 1298.52 279.983C1298.52 278.797 1298.85 277.747 1299.52 276.835C1300.2 275.922 1301.11 275.206 1302.27 274.686C1303.44 274.166 1304.76 273.906 1306.24 273.906C1308.32 273.906 1309.95 274.362 1311.14 275.274C1312.34 276.187 1313.18 277.391 1313.69 278.888ZM1318.93 295.203V274.179H1322.16V295.203H1318.93ZM1320.58 270.675C1319.95 270.675 1319.4 270.461 1318.95 270.032C1318.5 269.603 1318.28 269.088 1318.28 268.485C1318.28 267.883 1318.5 267.368 1318.95 266.939C1319.4 266.51 1319.95 266.295 1320.58 266.295C1321.2 266.295 1321.74 266.51 1322.19 266.939C1322.65 267.368 1322.87 267.883 1322.87 268.485C1322.87 269.088 1322.65 269.603 1322.19 270.032C1321.74 270.461 1321.2 270.675 1320.58 270.675ZM1336.57 303.525C1335.01 303.525 1333.66 303.325 1332.54 302.923C1331.42 302.531 1330.48 302.011 1329.74 301.363C1329 300.724 1328.41 300.04 1327.97 299.31L1330.54 297.503C1330.83 297.886 1331.2 298.324 1331.65 298.817C1332.1 299.319 1332.71 299.752 1333.49 300.117C1334.27 300.491 1335.3 300.678 1336.57 300.678C1338.26 300.678 1339.66 300.268 1340.77 299.446C1341.87 298.625 1342.42 297.339 1342.42 295.587V291.316H1342.15C1341.91 291.699 1341.58 292.174 1341.14 292.74C1340.71 293.296 1340.09 293.794 1339.28 294.232C1338.47 294.66 1337.39 294.875 1336.02 294.875C1334.32 294.875 1332.8 294.473 1331.45 293.67C1330.1 292.867 1329.04 291.699 1328.26 290.166C1327.48 288.633 1327.09 286.772 1327.09 284.582C1327.09 282.428 1327.47 280.553 1328.23 278.956C1328.99 277.35 1330.04 276.109 1331.39 275.233C1332.74 274.348 1334.3 273.906 1336.07 273.906C1337.44 273.906 1338.53 274.134 1339.33 274.59C1340.14 275.037 1340.76 275.548 1341.19 276.123C1341.63 276.689 1341.97 277.154 1342.2 277.519H1342.53V274.179H1345.65V295.806C1345.65 297.612 1345.24 299.081 1344.42 300.213C1343.61 301.354 1342.51 302.189 1341.14 302.718C1339.77 303.256 1338.24 303.525 1336.57 303.525ZM1336.46 291.973C1337.75 291.973 1338.85 291.677 1339.74 291.083C1340.64 290.49 1341.31 289.637 1341.78 288.524C1342.25 287.411 1342.48 286.078 1342.48 284.527C1342.48 283.012 1342.25 281.676 1341.79 280.517C1341.34 279.358 1340.66 278.45 1339.77 277.793C1338.87 277.136 1337.77 276.807 1336.46 276.807C1335.09 276.807 1333.95 277.154 1333.03 277.848C1332.13 278.541 1331.45 279.472 1330.99 280.64C1330.55 281.808 1330.32 283.104 1330.32 284.527C1330.32 285.987 1330.55 287.278 1331.01 288.401C1331.47 289.514 1332.16 290.39 1333.06 291.029C1333.97 291.658 1335.11 291.973 1336.46 291.973ZM1354.8 282.556V295.203H1351.57V274.179H1354.69V277.464H1354.96C1355.45 276.397 1356.2 275.539 1357.21 274.891C1358.21 274.234 1359.51 273.906 1361.09 273.906C1362.52 273.906 1363.76 274.198 1364.83 274.782C1365.9 275.357 1366.73 276.233 1367.32 277.41C1367.91 278.578 1368.21 280.056 1368.21 281.844V295.203H1364.98V282.063C1364.98 280.412 1364.55 279.125 1363.69 278.204C1362.84 277.273 1361.66 276.807 1360.16 276.807C1359.13 276.807 1358.21 277.031 1357.4 277.478C1356.59 277.925 1355.96 278.578 1355.5 279.435C1355.03 280.293 1354.8 281.333 1354.8 282.556ZM1389.01 278.888L1386.1 279.709C1385.92 279.226 1385.65 278.756 1385.3 278.299C1384.95 277.834 1384.47 277.451 1383.87 277.15C1383.27 276.848 1382.5 276.698 1381.56 276.698C1380.27 276.698 1379.2 276.994 1378.34 277.588C1377.49 278.172 1377.07 278.915 1377.07 279.819C1377.07 280.622 1377.36 281.256 1377.95 281.721C1378.53 282.187 1379.44 282.574 1380.68 282.885L1383.8 283.651C1385.68 284.107 1387.08 284.805 1388.01 285.745C1388.93 286.676 1389.39 287.876 1389.39 289.345C1389.39 290.55 1389.04 291.626 1388.35 292.575C1387.66 293.524 1386.71 294.273 1385.47 294.82C1384.24 295.368 1382.81 295.641 1381.18 295.641C1379.03 295.641 1377.26 295.176 1375.85 294.245C1374.45 293.314 1373.56 291.955 1373.18 290.166L1376.25 289.4C1376.54 290.531 1377.09 291.38 1377.9 291.946C1378.73 292.512 1379.8 292.794 1381.12 292.794C1382.63 292.794 1383.82 292.475 1384.71 291.836C1385.6 291.188 1386.05 290.413 1386.05 289.509C1386.05 288.779 1385.79 288.168 1385.28 287.675C1384.77 287.173 1383.99 286.799 1382.93 286.553L1379.42 285.732C1377.5 285.275 1376.08 284.568 1375.18 283.61C1374.29 282.643 1373.84 281.434 1373.84 279.983C1373.84 278.797 1374.17 277.747 1374.84 276.835C1375.51 275.922 1376.43 275.206 1377.59 274.686C1378.76 274.166 1380.08 273.906 1381.56 273.906C1383.64 273.906 1385.27 274.362 1386.46 275.274C1387.65 276.187 1388.5 277.391 1389.01 278.888ZM1414.23 274.179V276.917H1403.34V274.179H1414.23ZM1406.52 269.142H1409.75V289.181C1409.75 290.093 1409.88 290.778 1410.14 291.234C1410.42 291.681 1410.76 291.982 1411.18 292.137C1411.61 292.283 1412.06 292.356 1412.54 292.356C1412.89 292.356 1413.19 292.338 1413.41 292.302C1413.64 292.256 1413.82 292.22 1413.96 292.192L1414.62 295.094C1414.4 295.176 1414.09 295.258 1413.7 295.34C1413.31 295.431 1412.81 295.477 1412.21 295.477C1411.3 295.477 1410.4 295.281 1409.53 294.889C1408.66 294.496 1407.94 293.898 1407.36 293.096C1406.8 292.293 1406.52 291.28 1406.52 290.057V269.142ZM1427.41 295.641C1425.51 295.641 1423.85 295.19 1422.41 294.286C1420.99 293.383 1419.88 292.119 1419.07 290.495C1418.28 288.871 1417.88 286.973 1417.88 284.801C1417.88 282.611 1418.28 280.699 1419.07 279.066C1419.88 277.432 1420.99 276.164 1422.41 275.261C1423.85 274.357 1425.51 273.906 1427.41 273.906C1429.31 273.906 1430.97 274.357 1432.39 275.261C1433.82 276.164 1434.94 277.432 1435.73 279.066C1436.53 280.699 1436.94 282.611 1436.94 284.801C1436.94 286.973 1436.53 288.871 1435.73 290.495C1434.94 292.119 1433.82 293.383 1432.39 294.286C1430.97 295.19 1429.31 295.641 1427.41 295.641ZM1427.41 292.74C1428.85 292.74 1430.04 292.37 1430.97 291.631C1431.9 290.892 1432.59 289.92 1433.03 288.716C1433.48 287.511 1433.71 286.206 1433.71 284.801C1433.71 283.396 1433.48 282.086 1433.03 280.873C1432.59 279.659 1431.9 278.678 1430.97 277.93C1430.04 277.182 1428.85 276.807 1427.41 276.807C1425.97 276.807 1424.78 277.182 1423.85 277.93C1422.92 278.678 1422.23 279.659 1421.78 280.873C1421.34 282.086 1421.11 283.396 1421.11 284.801C1421.11 286.206 1421.34 287.511 1421.78 288.716C1422.23 289.92 1422.92 290.892 1423.85 291.631C1424.78 292.37 1425.97 292.74 1427.41 292.74ZM797.235 350.087V321.179H800.356V324.519H800.739C800.976 324.154 801.305 323.689 801.724 323.123C802.153 322.548 802.765 322.037 803.559 321.59C804.362 321.134 805.447 320.906 806.816 320.906C808.586 320.906 810.147 321.348 811.497 322.233C812.848 323.118 813.902 324.373 814.659 325.997C815.416 327.622 815.795 329.538 815.795 331.746C815.795 333.973 815.416 335.903 814.659 337.536C813.902 339.16 812.852 340.419 811.511 341.314C810.17 342.199 808.623 342.641 806.871 342.641C805.52 342.641 804.439 342.418 803.627 341.971C802.815 341.514 802.19 340.999 801.752 340.424C801.314 339.84 800.976 339.356 800.739 338.973H800.465V350.087H797.235ZM800.41 331.691C800.41 333.279 800.643 334.68 801.108 335.893C801.574 337.098 802.254 338.042 803.148 338.727C804.042 339.402 805.137 339.74 806.433 339.74C807.783 339.74 808.91 339.384 809.814 338.672C810.726 337.951 811.411 336.984 811.867 335.77C812.332 334.548 812.565 333.188 812.565 331.691C812.565 330.213 812.337 328.881 811.881 327.695C811.433 326.499 810.754 325.555 809.841 324.861C808.938 324.159 807.802 323.807 806.433 323.807C805.119 323.807 804.015 324.14 803.121 324.807C802.226 325.464 801.551 326.385 801.095 327.571C800.639 328.749 800.41 330.122 800.41 331.691ZM820.723 342.203V321.179H823.953V342.203H820.723ZM822.365 317.675C821.735 317.675 821.193 317.461 820.736 317.032C820.289 316.603 820.066 316.088 820.066 315.485C820.066 314.883 820.289 314.368 820.736 313.939C821.193 313.51 821.735 313.295 822.365 313.295C822.995 313.295 823.533 313.51 823.98 313.939C824.436 314.368 824.665 314.883 824.665 315.485C824.665 316.088 824.436 316.603 823.98 317.032C823.533 317.461 822.995 317.675 822.365 317.675ZM832.278 321.179L837.315 329.775L842.352 321.179H846.075L839.286 331.691L846.075 342.203H842.352L837.315 334.046L832.278 342.203H828.555L835.235 331.691L828.555 321.179H832.278ZM858.633 342.641C856.608 342.641 854.86 342.194 853.391 341.3C851.931 340.397 850.804 339.137 850.01 337.522C849.226 335.898 848.833 334.009 848.833 331.856C848.833 329.702 849.226 327.804 850.01 326.162C850.804 324.51 851.908 323.223 853.323 322.302C854.746 321.371 856.407 320.906 858.305 320.906C859.4 320.906 860.481 321.088 861.549 321.453C862.617 321.818 863.588 322.411 864.464 323.233C865.34 324.045 866.038 325.121 866.559 326.463C867.079 327.804 867.339 329.456 867.339 331.418V332.786H851.133V329.994H864.054C864.054 328.808 863.816 327.749 863.342 326.819C862.877 325.888 862.21 325.153 861.344 324.615C860.486 324.077 859.473 323.807 858.305 323.807C857.018 323.807 855.905 324.127 854.965 324.766C854.034 325.395 853.318 326.216 852.816 327.229C852.314 328.242 852.063 329.328 852.063 330.487V332.348C852.063 333.936 852.337 335.282 852.885 336.386C853.441 337.481 854.212 338.316 855.198 338.891C856.183 339.457 857.329 339.74 858.633 339.74C859.482 339.74 860.249 339.621 860.933 339.384C861.626 339.137 862.224 338.772 862.726 338.289C863.228 337.796 863.616 337.185 863.889 336.455L867.01 337.331C866.682 338.389 866.13 339.32 865.354 340.123C864.578 340.917 863.62 341.537 862.48 341.984C861.339 342.422 860.057 342.641 858.633 342.641ZM875.483 314.171V342.203H872.252V314.171H875.483ZM893.444 328.68V331.691H881.18V328.68H893.444ZM899.128 350.087V321.179H902.249V324.519H902.632C902.869 324.154 903.198 323.689 903.617 323.123C904.046 322.548 904.658 322.037 905.451 321.59C906.254 321.134 907.34 320.906 908.709 320.906C910.479 320.906 912.04 321.348 913.39 322.233C914.741 323.118 915.795 324.373 916.552 325.997C917.309 327.622 917.688 329.538 917.688 331.746C917.688 333.973 917.309 335.903 916.552 337.536C915.795 339.16 914.745 340.419 913.404 341.314C912.062 342.199 910.516 342.641 908.764 342.641C907.413 342.641 906.332 342.418 905.52 341.971C904.708 341.514 904.083 340.999 903.645 340.424C903.207 339.84 902.869 339.356 902.632 338.973H902.358V350.087H899.128ZM902.303 331.691C902.303 333.279 902.536 334.68 903.001 335.893C903.467 337.098 904.147 338.042 905.041 338.727C905.935 339.402 907.03 339.74 908.326 339.74C909.676 339.74 910.803 339.384 911.707 338.672C912.619 337.951 913.303 336.984 913.76 335.77C914.225 334.548 914.458 333.188 914.458 331.691C914.458 330.213 914.23 328.881 913.773 327.695C913.326 326.499 912.646 325.555 911.734 324.861C910.831 324.159 909.695 323.807 908.326 323.807C907.012 323.807 905.908 324.14 905.013 324.807C904.119 325.464 903.444 326.385 902.988 327.571C902.531 328.749 902.303 330.122 902.303 331.691ZM931.43 342.641C929.404 342.641 927.657 342.194 926.188 341.3C924.728 340.397 923.601 339.137 922.807 337.522C922.022 335.898 921.63 334.009 921.63 331.856C921.63 329.702 922.022 327.804 922.807 326.162C923.601 324.51 924.705 323.223 926.119 322.302C927.543 321.371 929.204 320.906 931.102 320.906C932.197 320.906 933.278 321.088 934.346 321.453C935.413 321.818 936.385 322.411 937.261 323.233C938.137 324.045 938.835 325.121 939.355 326.463C939.875 327.804 940.135 329.456 940.135 331.418V332.786H923.93V329.994H936.85C936.85 328.808 936.613 327.749 936.139 326.819C935.673 325.888 935.007 325.153 934.14 324.615C933.283 324.077 932.27 323.807 931.102 323.807C929.815 323.807 928.702 324.127 927.762 324.766C926.831 325.395 926.115 326.216 925.613 327.229C925.111 328.242 924.86 329.328 924.86 330.487V332.348C924.86 333.936 925.134 335.282 925.681 336.386C926.238 337.481 927.009 338.316 927.995 338.891C928.98 339.457 930.125 339.74 931.43 339.74C932.279 339.74 933.045 339.621 933.73 339.384C934.423 339.137 935.021 338.772 935.523 338.289C936.025 337.796 936.412 337.185 936.686 336.455L939.807 337.331C939.478 338.389 938.926 339.32 938.151 340.123C937.375 340.917 936.417 341.537 935.276 341.984C934.136 342.422 932.854 342.641 931.43 342.641ZM945.049 342.203V321.179H948.17V324.355H948.389C948.772 323.315 949.466 322.471 950.469 321.823C951.473 321.175 952.605 320.851 953.864 320.851C954.101 320.851 954.398 320.855 954.754 320.865C955.11 320.874 955.379 320.887 955.561 320.906V324.191C955.452 324.163 955.201 324.122 954.808 324.067C954.425 324.004 954.019 323.972 953.59 323.972C952.568 323.972 951.656 324.186 950.853 324.615C950.059 325.035 949.429 325.619 948.964 326.367C948.508 327.106 948.28 327.95 948.28 328.899V342.203H945.049ZM970.07 321.179V323.917H958.737V321.179H970.07ZM962.131 342.203V318.278C962.131 317.073 962.414 316.069 962.98 315.266C963.546 314.463 964.28 313.861 965.184 313.46C966.087 313.058 967.04 312.857 968.044 312.857C968.838 312.857 969.486 312.921 969.988 313.049C970.49 313.177 970.864 313.295 971.11 313.405L970.179 316.197C970.015 316.142 969.787 316.074 969.495 315.992C969.212 315.91 968.838 315.869 968.373 315.869C967.305 315.869 966.534 316.138 966.06 316.676C965.594 317.215 965.361 318.004 965.361 319.044V342.203H962.131ZM982.546 342.641C980.52 342.641 978.773 342.194 977.304 341.3C975.844 340.397 974.717 339.137 973.923 337.522C973.138 335.898 972.746 334.009 972.746 331.856C972.746 329.702 973.138 327.804 973.923 326.162C974.717 324.51 975.821 323.223 977.235 322.302C978.659 321.371 980.32 320.906 982.218 320.906C983.313 320.906 984.394 321.088 985.461 321.453C986.529 321.818 987.501 322.411 988.377 323.233C989.253 324.045 989.951 325.121 990.471 326.463C990.991 327.804 991.251 329.456 991.251 331.418V332.786H975.045V329.994H987.966C987.966 328.808 987.729 327.749 987.255 326.819C986.789 325.888 986.123 325.153 985.256 324.615C984.398 324.077 983.386 323.807 982.218 323.807C980.931 323.807 979.818 324.127 978.878 324.766C977.947 325.395 977.231 326.216 976.729 327.229C976.227 328.242 975.976 329.328 975.976 330.487V332.348C975.976 333.936 976.25 335.282 976.797 336.386C977.354 337.481 978.125 338.316 979.111 338.891C980.096 339.457 981.241 339.74 982.546 339.74C983.395 339.74 984.161 339.621 984.846 339.384C985.539 339.137 986.137 338.772 986.639 338.289C987.14 337.796 987.528 337.185 987.802 336.455L990.923 337.331C990.594 338.389 990.042 339.32 989.267 340.123C988.491 340.917 987.533 341.537 986.392 341.984C985.252 342.422 983.97 342.641 982.546 342.641ZM1004.71 342.641C1002.74 342.641 1001.04 342.176 999.614 341.245C998.191 340.314 997.096 339.032 996.329 337.399C995.563 335.766 995.18 333.9 995.18 331.801C995.18 329.666 995.572 327.781 996.357 326.148C997.151 324.505 998.255 323.223 999.669 322.302C1001.09 321.371 1002.75 320.906 1004.65 320.906C1006.13 320.906 1007.46 321.179 1008.65 321.727C1009.83 322.274 1010.81 323.041 1011.56 324.026C1012.32 325.012 1012.79 326.162 1012.97 327.476H1009.74C1009.5 326.518 1008.95 325.669 1008.1 324.93C1007.26 324.182 1006.13 323.807 1004.71 323.807C1003.45 323.807 1002.34 324.136 1001.39 324.793C1000.45 325.441 999.719 326.358 999.19 327.544C998.67 328.721 998.41 330.104 998.41 331.691C998.41 333.316 998.665 334.73 999.176 335.935C999.696 337.139 1000.43 338.074 1001.37 338.74C1002.32 339.407 1003.43 339.74 1004.71 339.74C1005.55 339.74 1006.31 339.594 1006.99 339.302C1007.68 339.01 1008.26 338.59 1008.73 338.042C1009.2 337.495 1009.54 336.838 1009.74 336.071H1012.97C1012.79 337.312 1012.34 338.43 1011.62 339.425C1010.91 340.41 1009.96 341.195 1008.78 341.779C1007.62 342.354 1006.26 342.641 1004.71 342.641ZM1026.84 321.179V323.917H1015.94V321.179H1026.84ZM1019.12 316.142H1022.35V336.181C1022.35 337.093 1022.48 337.778 1022.75 338.234C1023.02 338.681 1023.37 338.982 1023.79 339.137C1024.22 339.283 1024.67 339.356 1025.14 339.356C1025.5 339.356 1025.79 339.338 1026.02 339.302C1026.25 339.256 1026.43 339.22 1026.56 339.192L1027.22 342.094C1027 342.176 1026.7 342.258 1026.3 342.34C1025.91 342.431 1025.42 342.477 1024.81 342.477C1023.9 342.477 1023.01 342.281 1022.13 341.889C1021.26 341.496 1020.54 340.898 1019.97 340.096C1019.4 339.293 1019.12 338.28 1019.12 337.057V316.142ZM1042.98 342.203V314.171H1052.45C1054.65 314.171 1056.44 314.568 1057.84 315.362C1059.25 316.147 1060.29 317.21 1060.96 318.551C1061.64 319.893 1061.97 321.389 1061.97 323.041C1061.97 324.693 1061.64 326.194 1060.96 327.544C1060.3 328.895 1059.26 329.971 1057.87 330.774C1056.47 331.568 1054.68 331.965 1052.5 331.965H1045.71V328.954H1052.39C1053.9 328.954 1055.11 328.694 1056.02 328.174C1056.93 327.654 1057.59 326.951 1058.01 326.066C1058.42 325.172 1058.63 324.163 1058.63 323.041C1058.63 321.919 1058.42 320.915 1058.01 320.03C1057.59 319.145 1056.93 318.451 1056.01 317.949C1055.09 317.438 1053.86 317.183 1052.34 317.183H1046.37V342.203H1042.98ZM1075.32 342.641C1073.42 342.641 1071.76 342.19 1070.32 341.286C1068.9 340.383 1067.79 339.119 1066.98 337.495C1066.19 335.871 1065.79 333.973 1065.79 331.801C1065.79 329.611 1066.19 327.699 1066.98 326.066C1067.79 324.432 1068.9 323.164 1070.32 322.261C1071.76 321.357 1073.42 320.906 1075.32 320.906C1077.22 320.906 1078.88 321.357 1080.3 322.261C1081.73 323.164 1082.85 324.432 1083.64 326.066C1084.44 327.699 1084.85 329.611 1084.85 331.801C1084.85 333.973 1084.44 335.871 1083.64 337.495C1082.85 339.119 1081.73 340.383 1080.3 341.286C1078.88 342.19 1077.22 342.641 1075.32 342.641ZM1075.32 339.74C1076.76 339.74 1077.95 339.37 1078.88 338.631C1079.81 337.892 1080.5 336.92 1080.95 335.716C1081.39 334.511 1081.62 333.206 1081.62 331.801C1081.62 330.396 1081.39 329.086 1080.95 327.873C1080.5 326.659 1079.81 325.678 1078.88 324.93C1077.95 324.182 1076.76 323.807 1075.32 323.807C1073.88 323.807 1072.69 324.182 1071.76 324.93C1070.83 325.678 1070.14 326.659 1069.69 327.873C1069.25 329.086 1069.02 330.396 1069.02 331.801C1069.02 333.206 1069.25 334.511 1069.69 335.716C1070.14 336.92 1070.83 337.892 1071.76 338.631C1072.69 339.37 1073.88 339.74 1075.32 339.74ZM1093.83 342.203L1087.42 321.179H1090.81L1095.36 337.276H1095.58L1100.07 321.179H1103.52L1107.95 337.221H1108.17L1112.71 321.179H1116.11L1109.7 342.203H1106.53L1101.93 326.052H1101.6L1097 342.203H1093.83ZM1128.48 342.641C1126.45 342.641 1124.71 342.194 1123.24 341.3C1121.78 340.397 1120.65 339.137 1119.86 337.522C1119.07 335.898 1118.68 334.009 1118.68 331.856C1118.68 329.702 1119.07 327.804 1119.86 326.162C1120.65 324.51 1121.75 323.223 1123.17 322.302C1124.59 321.371 1126.25 320.906 1128.15 320.906C1129.24 320.906 1130.33 321.088 1131.39 321.453C1132.46 321.818 1133.43 322.411 1134.31 323.233C1135.19 324.045 1135.88 325.121 1136.4 326.463C1136.92 327.804 1137.18 329.456 1137.18 331.418V332.786H1120.98V329.994H1133.9C1133.9 328.808 1133.66 327.749 1133.19 326.819C1132.72 325.888 1132.06 325.153 1131.19 324.615C1130.33 324.077 1129.32 323.807 1128.15 323.807C1126.86 323.807 1125.75 324.127 1124.81 324.766C1123.88 325.395 1123.16 326.216 1122.66 327.229C1122.16 328.242 1121.91 329.328 1121.91 330.487V332.348C1121.91 333.936 1122.18 335.282 1122.73 336.386C1123.29 337.481 1124.06 338.316 1125.04 338.891C1126.03 339.457 1127.17 339.74 1128.48 339.74C1129.33 339.74 1130.09 339.621 1130.78 339.384C1131.47 339.137 1132.07 338.772 1132.57 338.289C1133.07 337.796 1133.46 337.185 1133.73 336.455L1136.86 337.331C1136.53 338.389 1135.97 339.32 1135.2 340.123C1134.42 340.917 1133.47 341.537 1132.32 341.984C1131.18 342.422 1129.9 342.641 1128.48 342.641ZM1142.1 342.203V321.179H1145.22V324.355H1145.44C1145.82 323.315 1146.51 322.471 1147.52 321.823C1148.52 321.175 1149.65 320.851 1150.91 320.851C1151.15 320.851 1151.45 320.855 1151.8 320.865C1152.16 320.874 1152.43 320.887 1152.61 320.906V324.191C1152.5 324.163 1152.25 324.122 1151.86 324.067C1151.47 324.004 1151.07 323.972 1150.64 323.972C1149.62 323.972 1148.7 324.186 1147.9 324.615C1147.11 325.035 1146.48 325.619 1146.01 326.367C1145.56 327.106 1145.33 327.95 1145.33 328.899V342.203H1142.1ZM1156.88 342.203V314.171H1166.35C1168.55 314.171 1170.34 314.568 1171.74 315.362C1173.15 316.147 1174.19 317.21 1174.86 318.551C1175.54 319.893 1175.87 321.389 1175.87 323.041C1175.87 324.693 1175.54 326.194 1174.86 327.544C1174.2 328.895 1173.16 329.971 1171.77 330.774C1170.37 331.568 1168.58 331.965 1166.4 331.965H1159.61V328.954H1166.29C1167.8 328.954 1169.01 328.694 1169.92 328.174C1170.83 327.654 1171.49 326.951 1171.91 326.066C1172.33 325.172 1172.53 324.163 1172.53 323.041C1172.53 321.919 1172.33 320.915 1171.91 320.03C1171.49 319.145 1170.83 318.451 1169.91 317.949C1168.99 317.438 1167.76 317.183 1166.24 317.183H1160.27V342.203H1156.88ZM1189.22 342.641C1187.32 342.641 1185.66 342.19 1184.22 341.286C1182.8 340.383 1181.69 339.119 1180.88 337.495C1180.09 335.871 1179.69 333.973 1179.69 331.801C1179.69 329.611 1180.09 327.699 1180.88 326.066C1181.69 324.432 1182.8 323.164 1184.22 322.261C1185.66 321.357 1187.32 320.906 1189.22 320.906C1191.12 320.906 1192.78 321.357 1194.2 322.261C1195.63 323.164 1196.75 324.432 1197.54 326.066C1198.34 327.699 1198.75 329.611 1198.75 331.801C1198.75 333.973 1198.34 335.871 1197.54 337.495C1196.75 339.119 1195.63 340.383 1194.2 341.286C1192.78 342.19 1191.12 342.641 1189.22 342.641ZM1189.22 339.74C1190.66 339.74 1191.85 339.37 1192.78 338.631C1193.71 337.892 1194.4 336.92 1194.85 335.716C1195.29 334.511 1195.52 333.206 1195.52 331.801C1195.52 330.396 1195.29 329.086 1194.85 327.873C1194.4 326.659 1193.71 325.678 1192.78 324.93C1191.85 324.182 1190.66 323.807 1189.22 323.807C1187.78 323.807 1186.59 324.182 1185.66 324.93C1184.73 325.678 1184.04 326.659 1183.59 327.873C1183.15 329.086 1182.92 330.396 1182.92 331.801C1182.92 333.206 1183.15 334.511 1183.59 335.716C1184.04 336.92 1184.73 337.892 1185.66 338.631C1186.59 339.37 1187.78 339.74 1189.22 339.74ZM1203.68 342.203V321.179H1206.91V342.203H1203.68ZM1205.32 317.675C1204.69 317.675 1204.15 317.461 1203.69 317.032C1203.24 316.603 1203.02 316.088 1203.02 315.485C1203.02 314.883 1203.24 314.368 1203.69 313.939C1204.15 313.51 1204.69 313.295 1205.32 313.295C1205.95 313.295 1206.49 313.51 1206.93 313.939C1207.39 314.368 1207.62 314.883 1207.62 315.485C1207.62 316.088 1207.39 316.603 1206.93 317.032C1206.49 317.461 1205.95 317.675 1205.32 317.675ZM1216.05 329.556V342.203H1212.82V321.179H1215.94V324.464H1216.22C1216.71 323.397 1217.46 322.539 1218.46 321.891C1219.47 321.234 1220.76 320.906 1222.35 320.906C1223.77 320.906 1225.02 321.198 1226.09 321.782C1227.15 322.357 1227.99 323.233 1228.58 324.41C1229.17 325.578 1229.47 327.056 1229.47 328.844V342.203H1226.24V329.063C1226.24 327.412 1225.81 326.125 1224.95 325.204C1224.09 324.273 1222.92 323.807 1221.42 323.807C1220.39 323.807 1219.47 324.031 1218.65 324.478C1217.85 324.925 1217.22 325.578 1216.75 326.435C1216.29 327.293 1216.05 328.333 1216.05 329.556ZM1244.51 321.179V323.917H1233.62V321.179H1244.51ZM1236.79 316.142H1240.02V336.181C1240.02 337.093 1240.16 337.778 1240.42 338.234C1240.7 338.681 1241.04 338.982 1241.46 339.137C1241.89 339.283 1242.34 339.356 1242.82 339.356C1243.17 339.356 1243.46 339.338 1243.69 339.302C1243.92 339.256 1244.1 339.22 1244.24 339.192L1244.9 342.094C1244.68 342.176 1244.37 342.258 1243.98 342.34C1243.59 342.431 1243.09 342.477 1242.49 342.477C1241.58 342.477 1240.68 342.281 1239.81 341.889C1238.94 341.496 1238.22 340.898 1237.64 340.096C1237.08 339.293 1236.79 338.28 1236.79 337.057V316.142ZM1260.21 350.087V321.179H1263.33V324.519H1263.72C1263.95 324.154 1264.28 323.689 1264.7 323.123C1265.13 322.548 1265.74 322.037 1266.54 321.59C1267.34 321.134 1268.43 320.906 1269.79 320.906C1271.56 320.906 1273.13 321.348 1274.48 322.233C1275.83 323.118 1276.88 324.373 1277.64 325.997C1278.39 327.622 1278.77 329.538 1278.77 331.746C1278.77 333.973 1278.39 335.903 1277.64 337.536C1276.88 339.16 1275.83 340.419 1274.49 341.314C1273.15 342.199 1271.6 342.641 1269.85 342.641C1268.5 342.641 1267.42 342.418 1266.61 341.971C1265.79 341.514 1265.17 340.999 1264.73 340.424C1264.29 339.84 1263.95 339.356 1263.72 338.973H1263.44V350.087H1260.21ZM1263.39 331.691C1263.39 333.279 1263.62 334.68 1264.09 335.893C1264.55 337.098 1265.23 338.042 1266.13 338.727C1267.02 339.402 1268.12 339.74 1269.41 339.74C1270.76 339.74 1271.89 339.384 1272.79 338.672C1273.7 337.951 1274.39 336.984 1274.85 335.77C1275.31 334.548 1275.54 333.188 1275.54 331.691C1275.54 330.213 1275.32 328.881 1274.86 327.695C1274.41 326.499 1273.73 325.555 1272.82 324.861C1271.92 324.159 1270.78 323.807 1269.41 323.807C1268.1 323.807 1266.99 324.14 1266.1 324.807C1265.2 325.464 1264.53 326.385 1264.07 327.571C1263.62 328.749 1263.39 330.122 1263.39 331.691ZM1283.7 342.203V321.179H1286.82V324.355H1287.04C1287.42 323.315 1288.12 322.471 1289.12 321.823C1290.12 321.175 1291.26 320.851 1292.52 320.851C1292.75 320.851 1293.05 320.855 1293.41 320.865C1293.76 320.874 1294.03 320.887 1294.21 320.906V324.191C1294.1 324.163 1293.85 324.122 1293.46 324.067C1293.08 324.004 1292.67 323.972 1292.24 323.972C1291.22 323.972 1290.31 324.186 1289.5 324.615C1288.71 325.035 1288.08 325.619 1287.62 326.367C1287.16 327.106 1286.93 327.95 1286.93 328.899V342.203H1283.7ZM1306.22 342.641C1304.19 342.641 1302.44 342.194 1300.97 341.3C1299.51 340.397 1298.39 339.137 1297.59 337.522C1296.81 335.898 1296.42 334.009 1296.42 331.856C1296.42 329.702 1296.81 327.804 1297.59 326.162C1298.39 324.51 1299.49 323.223 1300.91 322.302C1302.33 321.371 1303.99 320.906 1305.89 320.906C1306.98 320.906 1308.06 321.088 1309.13 321.453C1310.2 321.818 1311.17 322.411 1312.05 323.233C1312.92 324.045 1313.62 325.121 1314.14 326.463C1314.66 327.804 1314.92 329.456 1314.92 331.418V332.786H1298.72V329.994H1311.64C1311.64 328.808 1311.4 327.749 1310.93 326.819C1310.46 325.888 1309.79 325.153 1308.93 324.615C1308.07 324.077 1307.06 323.807 1305.89 323.807C1304.6 323.807 1303.49 324.127 1302.55 324.766C1301.62 325.395 1300.9 326.216 1300.4 327.229C1299.9 328.242 1299.65 329.328 1299.65 330.487V332.348C1299.65 333.936 1299.92 335.282 1300.47 336.386C1301.02 337.481 1301.8 338.316 1302.78 338.891C1303.77 339.457 1304.91 339.74 1306.22 339.74C1307.07 339.74 1307.83 339.621 1308.52 339.384C1309.21 339.137 1309.81 338.772 1310.31 338.289C1310.81 337.796 1311.2 337.185 1311.47 336.455L1314.59 337.331C1314.27 338.389 1313.71 339.32 1312.94 340.123C1312.16 340.917 1311.2 341.537 1310.06 341.984C1308.92 342.422 1307.64 342.641 1306.22 342.641ZM1334.73 325.888L1331.83 326.709C1331.64 326.226 1331.37 325.756 1331.02 325.299C1330.67 324.834 1330.2 324.451 1329.6 324.15C1328.99 323.848 1328.22 323.698 1327.28 323.698C1326 323.698 1324.92 323.994 1324.07 324.588C1323.22 325.172 1322.79 325.915 1322.79 326.819C1322.79 327.622 1323.08 328.256 1323.67 328.721C1324.25 329.187 1325.16 329.574 1326.41 329.885L1329.53 330.651C1331.41 331.107 1332.81 331.805 1333.73 332.745C1334.65 333.676 1335.11 334.876 1335.11 336.345C1335.11 337.55 1334.76 338.626 1334.07 339.575C1333.39 340.524 1332.43 341.273 1331.2 341.82C1329.96 342.368 1328.53 342.641 1326.9 342.641C1324.75 342.641 1322.98 342.176 1321.57 341.245C1320.17 340.314 1319.28 338.955 1318.91 337.166L1321.97 336.4C1322.26 337.531 1322.82 338.38 1323.63 338.946C1324.45 339.512 1325.52 339.794 1326.84 339.794C1328.35 339.794 1329.54 339.475 1330.43 338.836C1331.32 338.188 1331.77 337.413 1331.77 336.509C1331.77 335.779 1331.52 335.168 1331 334.675C1330.49 334.173 1329.71 333.799 1328.65 333.553L1325.15 332.732C1323.22 332.275 1321.81 331.568 1320.9 330.61C1320.01 329.643 1319.56 328.434 1319.56 326.983C1319.56 325.797 1319.9 324.747 1320.56 323.835C1321.24 322.922 1322.15 322.206 1323.31 321.686C1324.48 321.166 1325.8 320.906 1327.28 320.906C1329.36 320.906 1331 321.362 1332.18 322.274C1333.38 323.187 1334.23 324.391 1334.73 325.888ZM1348.79 342.641C1346.76 342.641 1345.02 342.194 1343.55 341.3C1342.09 340.397 1340.96 339.137 1340.17 337.522C1339.38 335.898 1338.99 334.009 1338.99 331.856C1338.99 329.702 1339.38 327.804 1340.17 326.162C1340.96 324.51 1342.06 323.223 1343.48 322.302C1344.9 321.371 1346.56 320.906 1348.46 320.906C1349.55 320.906 1350.64 321.088 1351.7 321.453C1352.77 321.818 1353.74 322.411 1354.62 323.233C1355.5 324.045 1356.19 325.121 1356.71 326.463C1357.23 327.804 1357.49 329.456 1357.49 331.418V332.786H1341.29V329.994H1354.21C1354.21 328.808 1353.97 327.749 1353.5 326.819C1353.03 325.888 1352.37 325.153 1351.5 324.615C1350.64 324.077 1349.63 323.807 1348.46 323.807C1347.17 323.807 1346.06 324.127 1345.12 324.766C1344.19 325.395 1343.47 326.216 1342.97 327.229C1342.47 328.242 1342.22 329.328 1342.22 330.487V332.348C1342.22 333.936 1342.49 335.282 1343.04 336.386C1343.6 337.481 1344.37 338.316 1345.35 338.891C1346.34 339.457 1347.48 339.74 1348.79 339.74C1349.64 339.74 1350.4 339.621 1351.09 339.384C1351.78 339.137 1352.38 338.772 1352.88 338.289C1353.38 337.796 1353.77 337.185 1354.04 336.455L1357.17 337.331C1356.84 338.389 1356.28 339.32 1355.51 340.123C1354.73 340.917 1353.78 341.537 1352.63 341.984C1351.49 342.422 1350.21 342.641 1348.79 342.641ZM1365.64 329.556V342.203H1362.41V321.179H1365.53V324.464H1365.8C1366.29 323.397 1367.04 322.539 1368.05 321.891C1369.05 321.234 1370.35 320.906 1371.93 320.906C1373.36 320.906 1374.6 321.198 1375.67 321.782C1376.74 322.357 1377.57 323.233 1378.16 324.41C1378.75 325.578 1379.05 327.056 1379.05 328.844V342.203H1375.82V329.063C1375.82 327.412 1375.39 326.125 1374.53 325.204C1373.68 324.273 1372.5 323.807 1371 323.807C1369.97 323.807 1369.05 324.031 1368.24 324.478C1367.44 324.925 1366.8 325.578 1366.34 326.435C1365.87 327.293 1365.64 328.333 1365.64 329.556ZM1394.1 321.179V323.917H1383.2V321.179H1394.1ZM1386.38 316.142H1389.61V336.181C1389.61 337.093 1389.74 337.778 1390 338.234C1390.28 338.681 1390.63 338.982 1391.04 339.137C1391.47 339.283 1391.93 339.356 1392.4 339.356C1392.76 339.356 1393.05 339.338 1393.28 339.302C1393.5 339.256 1393.69 339.22 1393.82 339.192L1394.48 342.094C1394.26 342.176 1393.96 342.258 1393.56 342.34C1393.17 342.431 1392.67 342.477 1392.07 342.477C1391.16 342.477 1390.26 342.281 1389.39 341.889C1388.52 341.496 1387.8 340.898 1387.23 340.096C1386.66 339.293 1386.38 338.28 1386.38 337.057V316.142ZM1405.14 342.696C1403.81 342.696 1402.6 342.445 1401.52 341.943C1400.43 341.432 1399.57 340.698 1398.93 339.74C1398.29 338.772 1397.97 337.604 1397.97 336.236C1397.97 335.031 1398.21 334.055 1398.68 333.307C1399.16 332.549 1399.79 331.956 1400.59 331.527C1401.38 331.098 1402.25 330.779 1403.21 330.569C1404.18 330.35 1405.15 330.177 1406.13 330.049C1407.41 329.885 1408.44 329.761 1409.24 329.679C1410.04 329.588 1410.62 329.438 1410.99 329.228C1411.36 329.018 1411.55 328.653 1411.55 328.133V328.023C1411.55 326.673 1411.18 325.623 1410.44 324.875C1409.71 324.127 1408.6 323.753 1407.11 323.753C1405.57 323.753 1404.36 324.09 1403.49 324.766C1402.61 325.441 1401.99 326.162 1401.64 326.928L1398.57 325.833C1399.12 324.556 1399.85 323.561 1400.76 322.849C1401.68 322.128 1402.69 321.627 1403.77 321.344C1404.87 321.052 1405.95 320.906 1407 320.906C1407.68 320.906 1408.46 320.988 1409.33 321.152C1410.22 321.307 1411.07 321.631 1411.89 322.124C1412.72 322.617 1413.41 323.36 1413.96 324.355C1414.51 325.35 1414.78 326.682 1414.78 328.352V342.203H1411.55V339.356H1411.38C1411.17 339.813 1410.8 340.301 1410.29 340.821C1409.78 341.341 1409.1 341.784 1408.25 342.149C1407.4 342.514 1406.37 342.696 1405.14 342.696ZM1405.64 339.794C1406.91 339.794 1407.99 339.543 1408.87 339.042C1409.75 338.54 1410.42 337.892 1410.86 337.098C1411.32 336.304 1411.55 335.469 1411.55 334.593V331.637C1411.41 331.801 1411.11 331.951 1410.65 332.088C1410.19 332.216 1409.66 332.33 1409.06 332.431C1408.46 332.522 1407.89 332.604 1407.32 332.677C1406.76 332.741 1406.31 332.796 1405.96 332.841C1405.12 332.951 1404.34 333.129 1403.61 333.375C1402.89 333.612 1402.31 333.973 1401.86 334.456C1401.42 334.931 1401.2 335.579 1401.2 336.4C1401.2 337.522 1401.62 338.371 1402.45 338.946C1403.29 339.512 1404.35 339.794 1405.64 339.794ZM1429.82 321.179V323.917H1418.92V321.179H1429.82ZM1422.1 316.142H1425.33V336.181C1425.33 337.093 1425.46 337.778 1425.73 338.234C1426 338.681 1426.35 338.982 1426.77 339.137C1427.19 339.283 1427.65 339.356 1428.12 339.356C1428.48 339.356 1428.77 339.338 1429 339.302C1429.22 339.256 1429.41 339.22 1429.54 339.192L1430.2 342.094C1429.98 342.176 1429.68 342.258 1429.28 342.34C1428.89 342.431 1428.39 342.477 1427.79 342.477C1426.88 342.477 1425.99 342.281 1425.11 341.889C1424.24 341.496 1423.52 340.898 1422.95 340.096C1422.38 339.293 1422.1 338.28 1422.1 337.057V316.142ZM1434.68 342.203V321.179H1437.91V342.203H1434.68ZM1436.32 317.675C1435.69 317.675 1435.15 317.461 1434.69 317.032C1434.24 316.603 1434.02 316.088 1434.02 315.485C1434.02 314.883 1434.24 314.368 1434.69 313.939C1435.15 313.51 1435.69 313.295 1436.32 313.295C1436.95 313.295 1437.49 313.51 1437.93 313.939C1438.39 314.368 1438.62 314.883 1438.62 315.485C1438.62 316.088 1438.39 316.603 1437.93 317.032C1437.49 317.461 1436.95 317.675 1436.32 317.675ZM1452.36 342.641C1450.47 342.641 1448.8 342.19 1447.37 341.286C1445.95 340.383 1444.83 339.119 1444.03 337.495C1443.24 335.871 1442.84 333.973 1442.84 331.801C1442.84 329.611 1443.24 327.699 1444.03 326.066C1444.83 324.432 1445.95 323.164 1447.37 322.261C1448.8 321.357 1450.47 320.906 1452.36 320.906C1454.26 320.906 1455.92 321.357 1457.35 322.261C1458.78 323.164 1459.89 324.432 1460.69 326.066C1461.49 327.699 1461.89 329.611 1461.89 331.801C1461.89 333.973 1461.49 335.871 1460.69 337.495C1459.89 339.119 1458.78 340.383 1457.35 341.286C1455.92 342.19 1454.26 342.641 1452.36 342.641ZM1452.36 339.74C1453.81 339.74 1454.99 339.37 1455.92 338.631C1456.85 337.892 1457.54 336.92 1457.99 335.716C1458.44 334.511 1458.66 333.206 1458.66 331.801C1458.66 330.396 1458.44 329.086 1457.99 327.873C1457.54 326.659 1456.85 325.678 1455.92 324.93C1454.99 324.182 1453.81 323.807 1452.36 323.807C1450.92 323.807 1449.74 324.182 1448.81 324.93C1447.88 325.678 1447.19 326.659 1446.74 327.873C1446.29 329.086 1446.07 330.396 1446.07 331.801C1446.07 333.206 1446.29 334.511 1446.74 335.716C1447.19 336.92 1447.88 337.892 1448.81 338.631C1449.74 339.37 1450.92 339.74 1452.36 339.74ZM1470.05 329.556V342.203H1466.82V321.179H1469.94V324.464H1470.22C1470.71 323.397 1471.46 322.539 1472.46 321.891C1473.47 321.234 1474.76 320.906 1476.35 320.906C1477.77 320.906 1479.02 321.198 1480.09 321.782C1481.15 322.357 1481.98 323.233 1482.58 324.41C1483.17 325.578 1483.47 327.056 1483.47 328.844V342.203H1480.24V329.063C1480.24 327.412 1479.81 326.125 1478.95 325.204C1478.09 324.273 1476.91 323.807 1475.42 323.807C1474.39 323.807 1473.47 324.031 1472.65 324.478C1471.85 324.925 1471.22 325.578 1470.75 326.435C1470.29 327.293 1470.05 328.333 1470.05 329.556ZM1504.26 325.888L1501.36 326.709C1501.18 326.226 1500.91 325.756 1500.55 325.299C1500.2 324.834 1499.73 324.451 1499.13 324.15C1498.53 323.848 1497.75 323.698 1496.81 323.698C1495.53 323.698 1494.46 323.994 1493.6 324.588C1492.75 325.172 1492.33 325.915 1492.33 326.819C1492.33 327.622 1492.62 328.256 1493.2 328.721C1493.79 329.187 1494.7 329.574 1495.94 329.885L1499.06 330.651C1500.94 331.107 1502.34 331.805 1503.26 332.745C1504.18 333.676 1504.64 334.876 1504.64 336.345C1504.64 337.55 1504.3 338.626 1503.6 339.575C1502.92 340.524 1501.96 341.273 1500.73 341.82C1499.5 342.368 1498.06 342.641 1496.43 342.641C1494.29 342.641 1492.51 342.176 1491.11 341.245C1489.7 340.314 1488.81 338.955 1488.44 337.166L1491.5 336.4C1491.8 337.531 1492.35 338.38 1493.16 338.946C1493.98 339.512 1495.05 339.794 1496.38 339.794C1497.88 339.794 1499.08 339.475 1499.96 338.836C1500.86 338.188 1501.3 337.413 1501.3 336.509C1501.3 335.779 1501.05 335.168 1500.54 334.675C1500.03 334.173 1499.24 333.799 1498.18 333.553L1494.68 332.732C1492.75 332.275 1491.34 331.568 1490.44 330.61C1489.54 329.643 1489.1 328.434 1489.1 326.983C1489.1 325.797 1489.43 324.747 1490.09 323.835C1490.77 322.922 1491.69 322.206 1492.85 321.686C1494.01 321.166 1495.34 320.906 1496.81 320.906C1498.9 320.906 1500.53 321.362 1501.71 322.274C1502.91 323.187 1503.76 324.391 1504.26 325.888ZM1511.86 342.422C1511.19 342.422 1510.61 342.181 1510.12 341.697C1509.64 341.213 1509.4 340.634 1509.4 339.959C1509.4 339.283 1509.64 338.704 1510.12 338.22C1510.61 337.737 1511.19 337.495 1511.86 337.495C1512.54 337.495 1513.12 337.737 1513.6 338.22C1514.08 338.704 1514.32 339.283 1514.32 339.959C1514.32 340.406 1514.21 340.816 1513.98 341.19C1513.76 341.565 1513.47 341.866 1513.09 342.094C1512.73 342.313 1512.32 342.422 1511.86 342.422Z" fill="black"/>
<defs>
<linearGradient id="paint0_linear_26_2" x1="960" y1="0" x2="960" y2="474" gradientUnits="userSpaceOnUse">
<stop stop-color="white"/>
<stop offset="1" stop-color="#F2F2F2"/>
</linearGradient>
<pattern id="pattern0_26_2" patternUnits="userSpaceOnUse" patternTransform="matrix(122 0 0 122 0 0)" preserveAspectRatio="none" viewBox="0 0 122 122" width="1" height="1">
<g id="pattern0_26_2_inner">
<g clip-path="url(#clip0_26_2)">
<rect width="61" height="61" fill="#EDEDED"/>
<rect x="61" y="61" width="61" height="61" fill="#EDEDED"/>
</g>
</g>
</pattern><clipPath id="clip0_26_2">
<rect width="122" height="122" fill="white"/>
</clipPath>
</defs>
</svg>
