<svg width="1920" height="474" viewBox="0 0 1920 474" fill="none" xmlns="http://www.w3.org/2000/svg" xmlns:xlink="http://www.w3.org/1999/xlink">
<rect width="1920" height="474" fill="url(#paint0_linear_26_41)"/>
<rect width="1920" height="474" fill="url(#pattern0_26_41)" fill-opacity="0.25"/>
<path d="M522.977 118.667L365.981 140.732C355.142 142.255 347.591 152.276 349.114 163.114L374.626 344.641C376.149 355.479 386.17 363.031 397.009 361.508L554.005 339.443C564.843 337.92 572.395 327.899 570.871 317.061L545.359 135.534C543.836 124.695 533.815 117.144 522.977 118.667Z" fill="#2D3E82"/>
<path d="M653.092 128.346L496.096 106.281C485.258 104.758 475.236 112.31 473.713 123.148L448.201 304.675C446.678 315.513 454.229 325.534 465.068 327.057L622.064 349.122C632.902 350.645 642.923 343.094 644.447 332.255L669.958 150.728C671.482 139.89 663.93 129.869 653.092 128.346Z" fill="#FF8000"/>
<mask id="mask0_26_41" style="mask-type:luminance" maskUnits="userSpaceOnUse" x="448" y="106" width="223" height="244">
<path d="M653.092 128.346L496.096 106.281C485.258 104.758 475.236 112.31 473.713 123.148L448.201 304.675C446.678 315.513 454.229 325.534 465.068 327.057L622.064 349.122C632.902 350.645 642.923 343.094 644.447 332.255L669.958 150.728C671.482 139.89 663.93 129.869 653.092 128.346Z" fill="white"/>
</mask>
<g mask="url(#mask0_26_41)">
<path d="M515.72 109.04L476.471 103.524L470.266 147.679L509.515 153.195L515.72 109.04Z" fill="#FF8000"/>
<path d="M594.218 120.072L554.969 114.556L548.764 158.711L588.013 164.227L594.218 120.072Z" fill="#FF8000"/>
<path d="M672.716 131.104L633.467 125.588L627.262 169.743L666.511 175.259L672.716 131.104Z" fill="#FF8000"/>
<path d="M548.764 158.711L509.515 153.195L503.309 197.35L542.558 202.866L548.764 158.711Z" fill="#FF8000"/>
<path d="M627.262 169.743L588.013 164.227L581.807 208.382L621.056 213.898L627.262 169.743Z" fill="#FF8000"/>
<path d="M503.309 197.35L464.06 191.834L457.854 235.989L497.103 241.505L503.309 197.35Z" fill="#FF8000"/>
<path d="M581.807 208.382L542.558 202.866L536.353 247.021L575.602 252.537L581.807 208.382Z" fill="#FF8000"/>
<path d="M660.305 219.414L621.056 213.898L614.851 258.053L654.1 263.569L660.305 219.414Z" fill="#FF8000"/>
<path d="M536.353 247.021L497.104 241.505L490.898 285.66L530.147 291.177L536.353 247.021Z" fill="#FF8000"/>
<path d="M614.851 258.053L575.602 252.537L569.396 296.693L608.645 302.209L614.851 258.053Z" fill="#FF8000"/>
<path d="M490.898 285.661L451.649 280.144L445.443 324.3L484.692 329.816L490.898 285.661Z" fill="#FF8000"/>
<path d="M569.396 296.692L530.147 291.176L523.941 335.331L563.19 340.847L569.396 296.692Z" fill="#FF8000"/>
<path d="M647.894 307.725L608.645 302.209L602.439 346.364L641.688 351.88L647.894 307.725Z" fill="#FF8000"/>
<path d="M554.969 114.556L515.72 109.04L509.515 153.195L548.764 158.711L554.969 114.556Z" fill="#FFA64D"/>
<path d="M633.468 125.588L594.219 120.072L588.013 164.227L627.262 169.743L633.468 125.588Z" fill="#FFA64D"/>
<path d="M509.515 153.195L470.266 147.679L464.06 191.834L503.309 197.35L509.515 153.195Z" fill="#FFA64D"/>
<path d="M588.013 164.227L548.764 158.711L542.558 202.866L581.807 208.382L588.013 164.227Z" fill="#FFA64D"/>
<path d="M666.511 175.259L627.262 169.743L621.056 213.898L660.305 219.414L666.511 175.259Z" fill="#FFA64D"/>
<path d="M542.558 202.866L503.309 197.35L497.103 241.505L536.353 247.021L542.558 202.866Z" fill="#FFA64D"/>
<path d="M621.056 213.898L581.807 208.382L575.602 252.537L614.851 258.053L621.056 213.898Z" fill="#FFA64D"/>
<path d="M497.103 241.505L457.854 235.989L451.649 280.144L490.898 285.66L497.103 241.505Z" fill="#FFA64D"/>
<path d="M575.601 252.537L536.352 247.021L530.147 291.177L569.396 296.693L575.601 252.537Z" fill="#FFA64D"/>
<path d="M654.1 263.57L614.851 258.053L608.645 302.209L647.894 307.725L654.1 263.57Z" fill="#FFA64D"/>
<path d="M530.147 291.176L490.898 285.66L484.692 329.815L523.941 335.331L530.147 291.176Z" fill="#FFA64D"/>
<path d="M608.645 302.209L569.396 296.693L563.19 340.848L602.439 346.364L608.645 302.209Z" fill="#FFA64D"/>
</g>
<path d="M588.981 281.934L603.739 301.519L641.49 264.299" stroke="white" stroke-width="14.6484" stroke-linecap="round" stroke-linejoin="round"/>
<path d="M799.151 211.754V155.69H821.27C825.522 155.69 829.145 156.502 832.138 158.126C835.131 159.732 837.412 161.968 838.982 164.833C840.569 167.68 841.363 170.965 841.363 174.688C841.363 178.411 840.56 181.696 838.954 184.543C837.348 187.39 835.021 189.607 831.974 191.195C828.944 192.783 825.276 193.577 820.969 193.577H806.871V184.078H819.053C821.334 184.078 823.214 183.685 824.692 182.901C826.188 182.098 827.302 180.993 828.032 179.588C828.78 178.165 829.154 176.531 829.154 174.688C829.154 172.827 828.78 171.202 828.032 169.815C827.302 168.41 826.188 167.324 824.692 166.558C823.195 165.773 821.297 165.381 818.998 165.381H811.005V211.754H799.151ZM848.844 211.754V169.706H860.505V211.754H848.844ZM854.702 164.286C852.968 164.286 851.481 163.711 850.24 162.561C849.017 161.393 848.406 159.997 848.406 158.373C848.406 156.767 849.017 155.389 850.24 154.239C851.481 153.071 852.968 152.487 854.702 152.487C856.435 152.487 857.914 153.071 859.136 154.239C860.377 155.389 860.998 156.767 860.998 158.373C860.998 159.997 860.377 161.393 859.136 162.561C857.914 163.711 856.435 164.286 854.702 164.286ZM879.592 169.706L887.312 184.406L895.223 169.706H907.186L895.004 190.73L907.515 211.754H895.607L887.312 197.218L879.154 211.754H867.109L879.592 190.73L867.547 169.706H879.592ZM931.769 212.575C927.444 212.575 923.721 211.699 920.6 209.947C917.498 208.177 915.107 205.677 913.428 202.446C911.749 199.198 910.909 195.356 910.909 190.921C910.909 186.596 911.749 182.8 913.428 179.533C915.107 176.267 917.47 173.721 920.518 171.896C923.584 170.071 927.179 169.158 931.304 169.158C934.078 169.158 936.66 169.606 939.051 170.5C941.46 171.376 943.558 172.699 945.347 174.469C947.154 176.239 948.559 178.466 949.563 181.149C950.566 183.813 951.068 186.934 951.068 190.511V193.714H915.563V186.487H940.091C940.091 184.808 939.726 183.32 938.996 182.025C938.266 180.729 937.253 179.716 935.957 178.986C934.68 178.238 933.192 177.864 931.495 177.864C929.725 177.864 928.155 178.274 926.787 179.095C925.436 179.898 924.378 180.984 923.611 182.353C922.845 183.704 922.452 185.209 922.434 186.87V193.741C922.434 195.822 922.817 197.619 923.584 199.134C924.369 200.649 925.473 201.817 926.896 202.638C928.32 203.459 930.008 203.87 931.961 203.87C933.256 203.87 934.443 203.687 935.519 203.322C936.596 202.957 937.518 202.41 938.284 201.68C939.051 200.95 939.635 200.056 940.036 198.997L950.822 199.709C950.274 202.3 949.152 204.563 947.455 206.498C945.776 208.414 943.604 209.911 940.94 210.987C938.293 212.046 935.236 212.575 931.769 212.575ZM970.34 155.69V211.754H958.679V155.69H970.34ZM979.901 211.754V155.69H1002.02C1006.27 155.69 1009.89 156.502 1012.89 158.126C1015.88 159.732 1018.16 161.968 1019.73 164.833C1021.32 167.68 1022.11 170.965 1022.11 174.688C1022.11 178.411 1021.31 181.696 1019.7 184.543C1018.1 187.39 1015.77 189.607 1012.72 191.195C1009.69 192.783 1006.03 193.577 1001.72 193.577H987.621V184.078H999.803C1002.08 184.078 1003.96 183.685 1005.44 182.901C1006.94 182.098 1008.05 180.993 1008.78 179.588C1009.53 178.165 1009.9 176.531 1009.9 174.688C1009.9 172.827 1009.53 171.202 1008.78 169.815C1008.05 168.41 1006.94 167.324 1005.44 166.558C1003.95 165.773 1002.05 165.381 999.748 165.381H991.754V211.754H979.901ZM1048.08 212.575C1043.75 212.575 1040.03 211.699 1036.91 209.947C1033.81 208.177 1031.42 205.677 1029.74 202.446C1028.06 199.198 1027.22 195.356 1027.22 190.921C1027.22 186.596 1028.06 182.8 1029.74 179.533C1031.42 176.267 1033.78 173.721 1036.83 171.896C1039.89 170.071 1043.49 169.158 1047.61 169.158C1050.39 169.158 1052.97 169.606 1055.36 170.5C1057.77 171.376 1059.87 172.699 1061.66 174.469C1063.46 176.239 1064.87 178.466 1065.87 181.149C1066.88 183.813 1067.38 186.934 1067.38 190.511V193.714H1031.87V186.487H1056.4C1056.4 184.808 1056.04 183.32 1055.31 182.025C1054.58 180.729 1053.56 179.716 1052.27 178.986C1050.99 178.238 1049.5 177.864 1047.8 177.864C1046.03 177.864 1044.46 178.274 1043.1 179.095C1041.75 179.898 1040.69 180.984 1039.92 182.353C1039.15 183.704 1038.76 185.209 1038.74 186.87V193.741C1038.74 195.822 1039.13 197.619 1039.89 199.134C1040.68 200.649 1041.78 201.817 1043.21 202.638C1044.63 203.459 1046.32 203.87 1048.27 203.87C1049.57 203.87 1050.75 203.687 1051.83 203.322C1052.91 202.957 1053.83 202.41 1054.59 201.68C1055.36 200.95 1055.94 200.056 1056.35 198.997L1067.13 199.709C1066.58 202.3 1065.46 204.563 1063.76 206.498C1062.09 208.414 1059.91 209.911 1057.25 210.987C1054.6 212.046 1051.55 212.575 1048.08 212.575ZM1074.99 211.754V169.706H1086.29V177.042H1086.73C1087.5 174.433 1088.78 172.462 1090.59 171.129C1092.4 169.779 1094.48 169.104 1096.83 169.104C1097.42 169.104 1098.05 169.14 1098.72 169.213C1099.4 169.286 1099.99 169.387 1100.5 169.514V179.862C1099.95 179.698 1099.2 179.552 1098.23 179.424C1097.26 179.296 1096.38 179.232 1095.57 179.232C1093.86 179.232 1092.33 179.606 1090.97 180.355C1089.64 181.085 1088.58 182.107 1087.8 183.421C1087.03 184.735 1086.65 186.249 1086.65 187.965V211.754H1074.99ZM1131.25 169.706V178.466H1105.3V169.706H1131.25ZM1111.24 211.754V166.667C1111.24 163.62 1111.83 161.092 1113.02 159.084C1114.22 157.077 1115.87 155.571 1117.95 154.568C1120.03 153.564 1122.39 153.062 1125.04 153.062C1126.82 153.062 1128.46 153.199 1129.94 153.473C1131.43 153.746 1132.55 153.993 1133.28 154.212L1131.2 162.972C1130.74 162.826 1130.17 162.689 1129.5 162.561C1128.84 162.433 1128.17 162.369 1127.47 162.369C1125.76 162.369 1124.56 162.771 1123.89 163.574C1123.21 164.359 1122.87 165.463 1122.87 166.886V211.754H1111.24ZM1156.03 212.575C1151.71 212.575 1147.98 211.699 1144.86 209.947C1141.76 208.177 1139.37 205.677 1137.69 202.446C1136.01 199.198 1135.17 195.356 1135.17 190.921C1135.17 186.596 1136.01 182.8 1137.69 179.533C1139.37 176.267 1141.73 173.721 1144.78 171.896C1147.85 170.071 1151.44 169.158 1155.57 169.158C1158.34 169.158 1160.92 169.606 1163.31 170.5C1165.72 171.376 1167.82 172.699 1169.61 174.469C1171.42 176.239 1172.82 178.466 1173.82 181.149C1174.83 183.813 1175.33 186.934 1175.33 190.511V193.714H1139.83V186.487H1164.35C1164.35 184.808 1163.99 183.32 1163.26 182.025C1162.53 180.729 1161.52 179.716 1160.22 178.986C1158.94 178.238 1157.45 177.864 1155.76 177.864C1153.99 177.864 1152.42 178.274 1151.05 179.095C1149.7 179.898 1148.64 180.984 1147.87 182.353C1147.11 183.704 1146.71 185.209 1146.7 186.87V193.741C1146.7 195.822 1147.08 197.619 1147.85 199.134C1148.63 200.649 1149.73 201.817 1151.16 202.638C1152.58 203.459 1154.27 203.87 1156.22 203.87C1157.52 203.87 1158.7 203.687 1159.78 203.322C1160.86 202.957 1161.78 202.41 1162.55 201.68C1163.31 200.95 1163.9 200.056 1164.3 198.997L1175.08 199.709C1174.54 202.3 1173.41 204.563 1171.72 206.498C1170.04 208.414 1167.87 209.911 1165.2 210.987C1162.56 212.046 1159.5 212.575 1156.03 212.575ZM1201.94 212.575C1197.63 212.575 1193.93 211.663 1190.82 209.838C1187.74 207.994 1185.37 205.439 1183.71 202.173C1182.06 198.906 1181.24 195.146 1181.24 190.894C1181.24 186.587 1182.07 182.809 1183.73 179.561C1185.41 176.294 1187.8 173.748 1190.88 171.923C1193.96 170.08 1197.63 169.158 1201.88 169.158C1205.55 169.158 1208.76 169.825 1211.52 171.157C1214.28 172.489 1216.46 174.36 1218.06 176.769C1219.67 179.178 1220.55 182.006 1220.72 185.255H1209.71C1209.4 183.156 1208.58 181.468 1207.25 180.19C1205.94 178.895 1204.21 178.247 1202.08 178.247C1200.27 178.247 1198.69 178.74 1197.34 179.725C1196.01 180.692 1194.97 182.107 1194.22 183.968C1193.47 185.83 1193.1 188.084 1193.1 190.73C1193.1 193.413 1193.46 195.694 1194.19 197.574C1194.94 199.453 1195.99 200.886 1197.34 201.871C1198.69 202.857 1200.27 203.35 1202.08 203.35C1203.41 203.35 1204.6 203.076 1205.66 202.528C1206.74 201.981 1207.62 201.187 1208.32 200.147C1209.03 199.088 1209.49 197.82 1209.71 196.342H1220.72C1220.54 199.554 1219.66 202.382 1218.09 204.828C1216.54 207.255 1214.39 209.153 1211.66 210.522C1208.92 211.891 1205.68 212.575 1201.94 212.575ZM1250.55 169.706V178.466H1225.23V169.706H1250.55ZM1230.98 159.632H1242.64V198.833C1242.64 199.91 1242.8 200.749 1243.13 201.351C1243.46 201.935 1243.92 202.346 1244.5 202.583C1245.1 202.82 1245.8 202.939 1246.58 202.939C1247.13 202.939 1247.68 202.893 1248.22 202.802C1248.77 202.693 1249.19 202.611 1249.48 202.556L1251.32 211.234C1250.73 211.416 1249.91 211.626 1248.85 211.863C1247.79 212.119 1246.51 212.274 1244.99 212.329C1242.18 212.438 1239.72 212.064 1237.6 211.206C1235.5 210.349 1233.87 209.016 1232.7 207.21C1231.53 205.403 1230.96 203.122 1230.98 200.366V159.632ZM1276.21 211.754V155.69H1298.33C1302.58 155.69 1306.2 156.502 1309.19 158.126C1312.19 159.732 1314.47 161.968 1316.04 164.833C1317.63 167.68 1318.42 170.965 1318.42 174.688C1318.42 178.411 1317.62 181.696 1316.01 184.543C1314.4 187.39 1312.08 189.607 1309.03 191.195C1306 192.783 1302.33 193.577 1298.02 193.577H1283.93V184.078H1296.11C1298.39 184.078 1300.27 183.685 1301.75 182.901C1303.24 182.098 1304.36 180.993 1305.09 179.588C1305.84 178.165 1306.21 176.531 1306.21 174.688C1306.21 172.827 1305.84 171.202 1305.09 169.815C1304.36 168.41 1303.24 167.324 1301.75 166.558C1300.25 165.773 1298.35 165.381 1296.05 165.381H1288.06V211.754H1276.21ZM1326.12 211.754V155.69H1348.24C1352.49 155.69 1356.11 156.502 1359.11 158.126C1362.1 159.732 1364.38 161.968 1365.95 164.833C1367.54 167.68 1368.33 170.965 1368.33 174.688C1368.33 178.411 1367.53 181.696 1365.92 184.543C1364.32 187.39 1361.99 189.607 1358.94 191.195C1355.91 192.783 1352.24 193.577 1347.94 193.577H1333.84V184.078H1346.02C1348.3 184.078 1350.18 183.685 1351.66 182.901C1353.16 182.098 1354.27 180.993 1355 179.588C1355.75 178.165 1356.12 176.531 1356.12 174.688C1356.12 172.827 1355.75 171.202 1355 169.815C1354.27 168.41 1353.16 167.324 1351.66 166.558C1350.16 165.773 1348.26 165.381 1345.97 165.381H1337.97V211.754H1326.12ZM1373.89 165.463V155.69H1419.94V165.463H1402.78V211.754H1391.06V165.463H1373.89Z" fill="black"/>
<path d="M809.118 285.407H823.765V281.514H826.54V285.407H831.203V288.066H826.54V298.473C826.54 300.786 825.306 301.942 822.839 301.942H817.713L817.135 299.283C818.792 299.398 820.373 299.475 821.876 299.475C823.109 299.475 823.765 298.897 823.765 297.779V288.066H809.118V285.407ZM804.03 266.713H806.844V302.019H804.03V289.261C801.486 291.651 799.135 293.54 796.977 294.966L795.743 292.306C798.056 290.919 800.792 288.76 804.03 285.908V266.713ZM814.013 289.647C816.171 291.998 817.79 294.041 818.947 295.814L816.788 297.355C815.593 295.428 813.974 293.27 811.97 290.919L814.013 289.647ZM816.711 272.109C814.938 274.152 812.741 275.848 810.081 277.235L808.308 275.077C812.51 272.996 815.323 270.182 816.788 266.674L819.64 267.214C819.293 268.023 818.908 268.794 818.484 269.565H829.739V271.955C827.542 277.582 821.452 281.552 811.508 283.826L810.12 281.36C813.165 280.704 815.824 279.895 818.137 278.97C816.904 277.814 815.67 276.85 814.475 276.002L816.441 274.499C817.867 275.54 819.216 276.657 820.488 277.852C823.379 276.272 825.46 274.345 826.732 272.109H816.711ZM798.171 271.223C799.983 273.844 801.525 276.657 802.835 279.625L800.407 280.627C799.019 277.39 797.478 274.576 795.782 272.186L798.171 271.223ZM848.433 270.683H866.857V273.42H851.594V282.67H866.047V285.407H851.594V298.203H848.433V270.683ZM872.837 270.76C873.492 270.76 874.032 270.953 874.494 271.415C874.957 271.801 875.188 272.34 875.188 273.034C875.188 273.689 874.957 274.229 874.494 274.692C874.032 275.116 873.492 275.347 872.837 275.347C872.182 275.347 871.642 275.116 871.18 274.692C870.717 274.229 870.524 273.689 870.524 273.034C870.524 272.34 870.717 271.801 871.18 271.415C871.642 270.953 872.182 270.76 872.837 270.76ZM871.295 278.276H874.379V298.203H871.295V278.276ZM888.365 277.737C891.371 277.737 893.607 279.047 895.071 281.707V278.276H898.155V296.816C898.155 303.176 895.11 306.375 889.058 306.375C886.36 306.375 884.279 305.835 882.891 304.756C881.465 303.677 880.579 302.058 880.232 299.899H883.315C883.547 301.248 884.125 302.25 885.011 302.867C885.898 303.522 887.247 303.869 889.058 303.869C893.067 303.869 895.071 301.634 895.071 297.24V293.732C893.607 296.392 891.371 297.741 888.365 297.741C885.59 297.741 883.393 296.777 881.774 294.889C880.155 293.038 879.384 290.687 879.384 287.797C879.384 284.867 880.155 282.516 881.774 280.666C883.393 278.7 885.59 277.737 888.365 277.737ZM888.827 280.28C886.823 280.28 885.281 280.974 884.163 282.439C883.084 283.749 882.545 285.561 882.545 287.797C882.545 289.878 883.007 291.612 883.971 292.923C885.05 294.388 886.63 295.158 888.789 295.158C890.793 295.158 892.335 294.465 893.491 293.077C894.57 291.728 895.11 289.955 895.11 287.797C895.11 285.561 894.57 283.749 893.491 282.439C892.335 280.974 890.793 280.28 888.827 280.28ZM911.638 277.737C914.683 277.737 916.765 278.97 917.882 281.514C918.653 280.203 919.578 279.24 920.658 278.662C921.621 278.045 922.777 277.737 924.165 277.737C926.246 277.737 927.904 278.392 929.214 279.702C930.448 281.051 931.103 282.863 931.103 285.137V298.203H928.019V285.638C928.019 283.865 927.634 282.555 926.902 281.707C926.131 280.782 924.897 280.358 923.201 280.358C921.891 280.358 920.773 280.82 919.925 281.822C919 282.824 918.576 284.096 918.576 285.715V298.203H915.493V285.638C915.493 282.092 913.951 280.358 910.906 280.358C909.48 280.358 908.323 280.897 907.398 282.053C906.473 283.133 906.011 284.482 906.011 286.062V298.203H902.927V278.276H906.011V280.936C907.514 278.777 909.403 277.737 911.638 277.737ZM944.573 277.737C947.425 277.737 949.506 278.469 950.894 279.972C952.05 281.283 952.667 283.094 952.667 285.407V298.203H949.776V294.85C949.005 295.929 947.965 296.816 946.731 297.51C945.267 298.319 943.609 298.743 941.759 298.743C939.755 298.743 938.175 298.242 936.98 297.24C935.746 296.199 935.13 294.85 935.13 293.231C935.13 290.957 936.016 289.261 937.866 288.105C939.485 287.026 941.798 286.447 944.804 286.409L949.584 286.332V285.291C949.584 281.938 947.849 280.28 944.38 280.28C942.915 280.28 941.721 280.55 940.796 281.167C939.755 281.784 939.1 282.747 938.791 284.019L935.746 283.788C936.17 281.707 937.211 280.126 938.83 279.124C940.294 278.199 942.183 277.737 944.573 277.737ZM949.584 288.644L944.997 288.722C940.526 288.799 938.29 290.263 938.29 293.154C938.29 294.079 938.637 294.812 939.408 295.428C940.179 296.006 941.181 296.315 942.414 296.315C944.303 296.315 945.96 295.698 947.425 294.465C948.851 293.27 949.584 291.882 949.584 290.34V288.644ZM979.902 270.143C982.986 270.143 985.453 270.837 987.226 272.263C989.076 273.728 990.116 275.925 990.386 278.816H987.264C986.917 276.812 986.146 275.347 984.951 274.383C983.718 273.381 981.984 272.919 979.748 272.919C977.705 272.919 976.125 273.227 974.969 273.921C973.658 274.692 973.003 275.848 973.003 277.428C973.003 278.816 973.774 279.934 975.354 280.782C976.048 281.167 977.744 281.745 980.403 282.516C984.026 283.595 986.416 284.482 987.572 285.176C989.847 286.563 991.003 288.49 991.003 290.996C991.003 293.385 990.039 295.313 988.112 296.7C986.185 298.049 983.602 298.743 980.326 298.743C977.089 298.743 974.545 298.049 972.694 296.662C970.536 295.004 969.341 292.499 969.11 289.107H972.232C972.502 291.497 973.35 293.27 974.737 294.388C976.009 295.39 977.859 295.929 980.326 295.929C982.562 295.929 984.412 295.505 985.799 294.657C987.187 293.809 987.881 292.653 987.881 291.188C987.881 289.454 986.956 288.105 985.144 287.141C984.373 286.679 982.408 286.023 979.324 285.137C976.009 284.135 973.889 283.364 973.003 282.901C970.883 281.668 969.842 279.895 969.842 277.582C969.842 275.193 970.844 273.304 972.887 271.994C974.699 270.76 977.05 270.143 979.902 270.143ZM995.236 270.143H998.281V298.203H995.236V270.143ZM1006.23 270.76C1006.89 270.76 1007.43 270.953 1007.89 271.415C1008.35 271.801 1008.59 272.34 1008.59 273.034C1008.59 273.689 1008.35 274.229 1007.89 274.692C1007.43 275.116 1006.89 275.347 1006.23 275.347C1005.58 275.347 1005.04 275.116 1004.58 274.692C1004.12 274.229 1003.92 273.689 1003.92 273.034C1003.92 272.34 1004.12 271.801 1004.58 271.415C1005.04 270.953 1005.58 270.76 1006.23 270.76ZM1004.69 278.276H1007.78V298.203H1004.69V278.276ZM1028.28 270.143H1031.36V298.203H1028.47V294.927C1027.08 297.471 1024.85 298.743 1021.84 298.743C1018.91 298.743 1016.64 297.664 1015.02 295.582C1013.51 293.655 1012.78 291.188 1012.78 288.182C1012.78 285.253 1013.51 282.863 1015.02 280.936C1016.64 278.777 1018.83 277.737 1021.69 277.737C1024.54 277.737 1026.73 279.124 1028.28 281.938V270.143ZM1022.34 280.28C1020.14 280.28 1018.49 281.051 1017.41 282.593C1016.41 283.942 1015.94 285.792 1015.94 288.182C1015.94 290.572 1016.41 292.46 1017.37 293.848C1018.45 295.39 1020.07 296.199 1022.23 296.199C1024.23 296.199 1025.77 295.428 1026.89 293.886C1027.85 292.499 1028.35 290.687 1028.35 288.452V288.066C1028.35 285.754 1027.78 283.865 1026.7 282.439C1025.58 280.974 1024.11 280.28 1022.34 280.28ZM1044.35 277.737C1047.55 277.737 1049.97 278.816 1051.59 280.974C1053.06 282.901 1053.83 285.638 1053.91 289.107H1038.18C1038.33 291.343 1038.91 293.077 1039.99 294.31C1041.07 295.544 1042.57 296.161 1044.46 296.161C1046.08 296.161 1047.43 295.737 1048.43 294.927C1049.28 294.233 1049.94 293.193 1050.44 291.805H1053.52C1053.06 293.732 1052.17 295.274 1050.82 296.507C1049.16 297.972 1047.05 298.743 1044.46 298.743C1041.61 298.743 1039.3 297.779 1037.6 295.929C1035.83 294.002 1034.98 291.458 1034.98 288.221C1034.98 285.291 1035.79 282.824 1037.49 280.859C1039.18 278.777 1041.46 277.737 1044.35 277.737ZM1044.42 280.319C1042.65 280.319 1041.22 280.897 1040.15 282.053C1039.07 283.21 1038.45 284.752 1038.26 286.717H1050.71C1050.32 282.439 1048.2 280.319 1044.42 280.319ZM1064.57 277.737C1069.5 277.737 1072.2 279.779 1072.74 283.942H1069.74C1069.47 282.709 1068.96 281.784 1068.19 281.244C1067.35 280.627 1066.11 280.319 1064.53 280.319C1063.14 280.319 1062.07 280.55 1061.29 281.09C1060.45 281.591 1060.02 282.285 1060.02 283.171C1060.02 284.019 1060.56 284.752 1061.72 285.33C1062.45 285.677 1063.84 286.101 1065.84 286.64C1068.23 287.218 1069.93 287.835 1070.97 288.49C1072.55 289.492 1073.36 290.841 1073.36 292.576C1073.36 296.662 1070.54 298.743 1064.92 298.743C1059.68 298.743 1056.82 296.43 1056.36 291.844H1059.37C1059.6 293.424 1060.18 294.542 1061.02 295.235C1061.87 295.852 1063.14 296.161 1064.84 296.161C1068.39 296.161 1070.2 295.004 1070.2 292.769C1070.2 291.651 1069.54 290.803 1068.31 290.186C1067.65 289.878 1066.23 289.454 1064.07 288.914C1061.72 288.336 1060.06 287.758 1059.14 287.141C1057.59 286.216 1056.86 284.944 1056.86 283.248C1056.86 281.552 1057.59 280.242 1059.1 279.24C1060.48 278.238 1062.33 277.737 1064.57 277.737ZM1122.5 269.334V300.516H1119.8V297.471H1110.43V300.901H1107.77V269.334H1122.5ZM1110.43 294.85H1119.8V271.916H1110.43V294.85ZM1090.16 277.313H1096.9V271.762C1094.98 272.071 1093.01 272.302 1091.01 272.456L1090.12 269.989C1095.86 269.527 1100.64 268.563 1104.5 267.098L1105.81 269.411C1103.8 270.143 1101.76 270.76 1099.6 271.223V277.313H1106.19V279.895H1099.6V281.822C1101.84 283.788 1104.07 286.023 1106.35 288.567L1104.73 290.957C1102.72 288.221 1101.03 286.023 1099.6 284.405V301.788H1096.9V284.674C1095.25 288.336 1093.05 291.651 1090.31 294.619L1089.16 291.612C1092.74 288.221 1095.32 284.405 1096.9 280.165V279.895H1090.16V277.313ZM1141.58 270.683H1160V273.42H1144.74V282.67H1159.19V285.407H1144.74V298.203H1141.58V270.683ZM1165.98 270.76C1166.64 270.76 1167.18 270.953 1167.64 271.415C1168.1 271.801 1168.33 272.34 1168.33 273.034C1168.33 273.689 1168.1 274.229 1167.64 274.692C1167.18 275.116 1166.64 275.347 1165.98 275.347C1165.33 275.347 1164.79 275.116 1164.32 274.692C1163.86 274.229 1163.67 273.689 1163.67 273.034C1163.67 272.34 1163.86 271.801 1164.32 271.415C1164.79 270.953 1165.33 270.76 1165.98 270.76ZM1164.44 278.276H1167.52V298.203H1164.44V278.276ZM1181.51 277.737C1184.52 277.737 1186.75 279.047 1188.22 281.707V278.276H1191.3V296.816C1191.3 303.176 1188.25 306.375 1182.2 306.375C1179.5 306.375 1177.42 305.835 1176.04 304.756C1174.61 303.677 1173.72 302.058 1173.38 299.899H1176.46C1176.69 301.248 1177.27 302.25 1178.16 302.867C1179.04 303.522 1180.39 303.869 1182.2 303.869C1186.21 303.869 1188.22 301.634 1188.22 297.24V293.732C1186.75 296.392 1184.52 297.741 1181.51 297.741C1178.73 297.741 1176.54 296.777 1174.92 294.889C1173.3 293.038 1172.53 290.687 1172.53 287.797C1172.53 284.867 1173.3 282.516 1174.92 280.666C1176.54 278.7 1178.73 277.737 1181.51 277.737ZM1181.97 280.28C1179.97 280.28 1178.43 280.974 1177.31 282.439C1176.23 283.749 1175.69 285.561 1175.69 287.797C1175.69 289.878 1176.15 291.612 1177.12 292.923C1178.19 294.388 1179.77 295.158 1181.93 295.158C1183.94 295.158 1185.48 294.465 1186.64 293.077C1187.71 291.728 1188.25 289.955 1188.25 287.797C1188.25 285.561 1187.71 283.749 1186.64 282.439C1185.48 280.974 1183.94 280.28 1181.97 280.28ZM1204.78 277.737C1207.83 277.737 1209.91 278.97 1211.03 281.514C1211.8 280.203 1212.72 279.24 1213.8 278.662C1214.77 278.045 1215.92 277.737 1217.31 277.737C1219.39 277.737 1221.05 278.392 1222.36 279.702C1223.59 281.051 1224.25 282.863 1224.25 285.137V298.203H1221.16V285.638C1221.16 283.865 1220.78 282.555 1220.05 281.707C1219.28 280.782 1218.04 280.358 1216.35 280.358C1215.04 280.358 1213.92 280.82 1213.07 281.822C1212.14 282.824 1211.72 284.096 1211.72 285.715V298.203H1208.64V285.638C1208.64 282.092 1207.1 280.358 1204.05 280.358C1202.62 280.358 1201.47 280.897 1200.54 282.053C1199.62 283.133 1199.16 284.482 1199.16 286.062V298.203H1196.07V278.276H1199.16V280.936C1200.66 278.777 1202.55 277.737 1204.78 277.737ZM1237.72 277.737C1240.57 277.737 1242.65 278.469 1244.04 279.972C1245.19 281.283 1245.81 283.094 1245.81 285.407V298.203H1242.92V294.85C1242.15 295.929 1241.11 296.816 1239.88 297.51C1238.41 298.319 1236.75 298.743 1234.9 298.743C1232.9 298.743 1231.32 298.242 1230.12 297.24C1228.89 296.199 1228.27 294.85 1228.27 293.231C1228.27 290.957 1229.16 289.261 1231.01 288.105C1232.63 287.026 1234.94 286.447 1237.95 286.409L1242.73 286.332V285.291C1242.73 281.938 1240.99 280.28 1237.52 280.28C1236.06 280.28 1234.86 280.55 1233.94 281.167C1232.9 281.784 1232.24 282.747 1231.94 284.019L1228.89 283.788C1229.31 281.707 1230.36 280.126 1231.97 279.124C1233.44 278.199 1235.33 277.737 1237.72 277.737ZM1242.73 288.644L1238.14 288.722C1233.67 288.799 1231.43 290.263 1231.43 293.154C1231.43 294.079 1231.78 294.812 1232.55 295.428C1233.32 296.006 1234.33 296.315 1235.56 296.315C1237.45 296.315 1239.1 295.698 1240.57 294.465C1242 293.27 1242.73 291.882 1242.73 290.34V288.644ZM1263.8 270.683H1273.66C1278.02 270.683 1281.29 271.916 1283.53 274.46C1285.57 276.773 1286.61 280.126 1286.61 284.443C1286.61 288.683 1285.5 292.036 1283.3 294.426C1280.99 296.931 1277.67 298.203 1273.35 298.203H1263.8V270.683ZM1266.96 273.42V295.467H1272.82C1276.4 295.467 1279.1 294.503 1280.91 292.615C1282.61 290.764 1283.49 288.028 1283.49 284.443C1283.49 280.743 1282.68 278.006 1281.1 276.233C1279.41 274.345 1276.79 273.42 1273.16 273.42H1266.96ZM1298.83 277.737C1302.03 277.737 1304.46 278.816 1306.08 280.974C1307.55 282.901 1308.32 285.638 1308.39 289.107H1292.67C1292.82 291.343 1293.4 293.077 1294.48 294.31C1295.56 295.544 1297.06 296.161 1298.95 296.161C1300.57 296.161 1301.92 295.737 1302.92 294.927C1303.77 294.233 1304.42 293.193 1304.92 291.805H1308.01C1307.55 293.732 1306.66 295.274 1305.31 296.507C1303.65 297.972 1301.53 298.743 1298.95 298.743C1296.1 298.743 1293.79 297.779 1292.09 295.929C1290.32 294.002 1289.47 291.458 1289.47 288.221C1289.47 285.291 1290.28 282.824 1291.97 280.859C1293.67 278.777 1295.94 277.737 1298.83 277.737ZM1298.91 280.319C1297.14 280.319 1295.71 280.897 1294.63 282.053C1293.55 283.21 1292.94 284.752 1292.74 286.717H1305.19C1304.81 282.439 1302.69 280.319 1298.91 280.319ZM1319.06 277.737C1323.99 277.737 1326.69 279.779 1327.23 283.942H1324.22C1323.95 282.709 1323.45 281.784 1322.68 281.244C1321.83 280.627 1320.6 280.319 1319.02 280.319C1317.63 280.319 1316.55 280.55 1315.78 281.09C1314.93 281.591 1314.51 282.285 1314.51 283.171C1314.51 284.019 1315.05 284.752 1316.21 285.33C1316.94 285.677 1318.33 286.101 1320.33 286.64C1322.72 287.218 1324.42 287.835 1325.46 288.49C1327.04 289.492 1327.85 290.841 1327.85 292.576C1327.85 296.662 1325.03 298.743 1319.4 298.743C1314.16 298.743 1311.31 296.43 1310.85 291.844H1313.85C1314.09 293.424 1314.66 294.542 1315.51 295.235C1316.36 295.852 1317.63 296.161 1319.33 296.161C1322.87 296.161 1324.69 295.004 1324.69 292.769C1324.69 291.651 1324.03 290.803 1322.8 290.186C1322.14 289.878 1320.72 289.454 1318.56 288.914C1316.21 288.336 1314.55 287.758 1313.62 287.141C1312.08 286.216 1311.35 284.944 1311.35 283.248C1311.35 281.552 1312.08 280.242 1313.58 279.24C1314.97 278.238 1316.82 277.737 1319.06 277.737ZM1334.01 270.76C1334.66 270.76 1335.2 270.953 1335.67 271.415C1336.13 271.801 1336.36 272.34 1336.36 273.034C1336.36 273.689 1336.13 274.229 1335.67 274.692C1335.2 275.116 1334.66 275.347 1334.01 275.347C1333.35 275.347 1332.81 275.116 1332.35 274.692C1331.89 274.229 1331.7 273.689 1331.7 273.034C1331.7 272.34 1331.89 271.801 1332.35 271.415C1332.81 270.953 1333.35 270.76 1334.01 270.76ZM1332.47 278.276H1335.55V298.203H1332.47V278.276ZM1349.54 277.737C1352.54 277.737 1354.78 279.047 1356.24 281.707V278.276H1359.33V296.816C1359.33 303.176 1356.28 306.375 1350.23 306.375C1347.53 306.375 1345.45 305.835 1344.06 304.756C1342.64 303.677 1341.75 302.058 1341.4 299.899H1344.49C1344.72 301.248 1345.3 302.25 1346.18 302.867C1347.07 303.522 1348.42 303.869 1350.23 303.869C1354.24 303.869 1356.24 301.634 1356.24 297.24V293.732C1354.78 296.392 1352.54 297.741 1349.54 297.741C1346.76 297.741 1344.56 296.777 1342.95 294.889C1341.33 293.038 1340.56 290.687 1340.56 287.797C1340.56 284.867 1341.33 282.516 1342.95 280.666C1344.56 278.7 1346.76 277.737 1349.54 277.737ZM1350 280.28C1347.99 280.28 1346.45 280.974 1345.34 282.439C1344.26 283.749 1343.72 285.561 1343.72 287.797C1343.72 289.878 1344.18 291.612 1345.14 292.923C1346.22 294.388 1347.8 295.158 1349.96 295.158C1351.96 295.158 1353.51 294.465 1354.66 293.077C1355.74 291.728 1356.28 289.955 1356.28 287.797C1356.28 285.561 1355.74 283.749 1354.66 282.439C1353.51 280.974 1351.96 280.28 1350 280.28ZM1373.43 277.737C1378.36 277.737 1380.87 280.473 1380.87 285.946V298.203H1377.78V286.178C1377.78 282.285 1376.01 280.358 1372.54 280.358C1371.15 280.358 1369.96 280.859 1368.96 281.861C1367.88 282.94 1367.3 284.366 1367.18 286.178V298.203H1364.1V278.276H1367.18V281.206C1367.88 280.088 1368.76 279.24 1369.84 278.662C1370.92 278.045 1372.12 277.737 1373.43 277.737ZM1397.96 288.066H1421.44V285.638H1424.21V288.066H1432.69V290.764H1424.21V298.936C1424.21 301.094 1423.02 302.173 1420.7 302.173H1415.77L1415.15 299.437C1416.77 299.552 1418.28 299.629 1419.74 299.629C1420.86 299.629 1421.44 299.167 1421.44 298.242V290.764H1397.96V288.066ZM1426.87 268.216V277.39H1404.79V280.165C1404.79 281.206 1405.36 281.745 1406.44 281.745H1427.06C1427.84 281.707 1428.34 281.437 1428.64 280.974C1428.88 280.55 1429.11 279.548 1429.26 277.929L1431.88 278.777C1431.69 280.512 1431.42 281.745 1431.11 282.516C1430.57 283.672 1429.49 284.25 1427.87 284.328H1405.44C1403.13 284.328 1402.01 283.248 1402.01 281.167V268.216H1426.87ZM1404.79 274.846H1424.1V270.722H1404.79V274.846ZM1406.83 291.921C1409.41 293.925 1411.57 295.968 1413.34 297.972L1411.26 300.053C1409.72 298.088 1407.56 296.006 1404.86 293.809L1406.83 291.921ZM1464.34 280.126V269.604H1467.11V282.824H1455.32V296.97H1466.19V286.447H1469V301.788H1466.19V299.629H1438.78V286.447H1441.6V296.97H1452.46V282.824H1440.67V269.604H1443.45V280.126H1452.46V266.674H1455.32V280.126H1464.34ZM1480.25 267.677C1482.49 269.989 1484.22 272.032 1485.46 273.805L1483.3 275.308C1481.95 273.381 1480.22 271.338 1478.14 269.18L1480.25 267.677ZM1493.82 283.942C1496.6 286.987 1498.72 289.647 1500.22 291.882L1497.79 293.578C1496.25 291.111 1494.21 288.336 1491.59 285.33L1493.82 283.942ZM1489 266.713H1491.74V271.3C1491.7 272.996 1491.63 274.653 1491.51 276.233H1507.39C1507.39 287.257 1506.89 294.272 1505.93 297.278C1504.92 300.285 1503.11 301.788 1500.53 301.788C1498.64 301.788 1497.06 301.711 1495.75 301.634L1495.02 298.936C1496.98 299.09 1498.76 299.167 1500.37 299.167C1502.53 299.013 1503.81 296.816 1504.11 292.653C1504.42 288.452 1504.58 283.865 1504.58 278.931H1491.24C1490.62 283.788 1489.54 287.835 1487.96 291.15C1485.69 295.737 1481.95 299.321 1476.71 301.904L1475.13 299.437C1480.29 296.816 1483.92 293.347 1485.92 288.991C1487.12 286.139 1487.96 282.786 1488.46 278.931H1476.48V276.233H1488.77C1488.89 274.615 1488.97 272.996 1489 271.3V266.713ZM807.73 329.886C807.191 330.195 806.728 330.503 806.266 330.812L804.57 328.73C808.347 326.649 811.469 323.874 813.859 320.443L816.711 321.098C816.171 321.869 815.67 322.563 815.131 323.218H824.805V325.03C823.803 326.34 822.801 327.458 821.799 328.422H828.968V336.824H817.443L817.405 336.863C819.062 338.559 820.334 340.332 821.182 342.259C823.803 341.103 826.039 339.677 827.812 337.981L829.623 340.062C828.428 341.103 827.118 342.028 825.653 342.837C826.732 346.306 828.66 349.39 831.435 352.088L829.623 354.362C826.809 351.201 824.805 347.732 823.572 343.916C823.032 344.148 822.531 344.379 822.03 344.61C822.415 345.998 822.647 347.385 822.724 348.85C822.724 351.471 822.3 353.321 821.452 354.362C820.72 355.21 819.371 355.788 817.443 356.019C816.75 356.096 815.979 356.135 815.131 356.135L814.321 353.629C815.439 353.629 816.364 353.591 817.135 353.552C817.983 353.475 818.677 353.167 819.216 352.55C819.679 351.934 819.949 350.7 819.949 348.85C819.949 348.349 819.91 347.886 819.872 347.424C816.557 350.43 812.201 352.936 806.805 354.863L805.418 352.473C811.43 350.546 816.056 348.002 819.371 344.919C819.101 344.071 818.792 343.261 818.445 342.529C815.593 345.073 811.739 347.193 806.882 348.812L805.533 346.537C810.621 344.996 814.553 343.03 817.328 340.64C816.865 339.946 816.326 339.291 815.786 338.674C813.473 340.794 810.39 342.298 806.612 343.146L805.572 340.833C809.233 340.062 812.047 338.713 814.051 336.824H807.73V329.886ZM818.291 328.422C819.409 327.497 820.488 326.456 821.568 325.377H813.203C812.086 326.495 810.929 327.497 809.773 328.422H818.291ZM826.27 334.55V330.696H820.141C819.833 332.083 819.371 333.394 818.831 334.55H826.27ZM815.902 334.55C816.595 333.355 817.135 332.083 817.443 330.696H810.428V334.55H815.902ZM800.253 334.319C799.135 336.015 797.902 337.672 796.591 339.253L795.705 336.323C799.251 331.737 801.795 326.456 803.413 320.52L805.996 321.754C805.225 324.413 804.223 326.957 803.066 329.347V356.019H800.253V334.319ZM837.178 323.334H850.784V320.636H853.559V323.334H867.011V325.608H853.559V328.229H865.392V330.426H853.559V333.047H868.707V335.398H851.246C848.972 337.171 846.698 338.597 844.386 339.677C847.816 339.561 851.246 339.445 854.638 339.291C856.257 338.405 857.876 337.48 859.456 336.516L861.615 337.904C856.026 341.141 850.398 343.608 844.771 345.381C849.396 345.227 855.024 344.88 861.653 344.34C860.767 343.415 859.842 342.49 858.839 341.565L860.728 340.37C863.696 343.107 865.97 345.497 867.512 347.54L865.546 348.889C864.852 347.964 864.12 347.077 863.349 346.191C859.687 346.46 856.45 346.692 853.675 346.846V353.013C853.675 355.056 852.634 356.096 850.63 356.096H846.968L846.428 353.629C847.585 353.707 848.664 353.784 849.743 353.784C850.553 353.784 850.977 353.321 850.977 352.396V347C847.006 347.193 843.923 347.308 841.765 347.308L838.527 347.424L837.987 345.111L839.49 345.265C843.345 344.263 847.161 342.876 850.938 341.141C847.7 341.257 844.27 341.373 840.647 341.527L840.146 339.484C840.685 339.407 841.225 339.291 841.726 339.06C843.499 338.443 845.619 337.21 848.009 335.398H835.52V333.047H850.784V330.426H838.797V328.229H850.784V325.608H837.178V323.334ZM845.85 348.349L847.43 350.122C844.424 352.28 840.685 354.053 836.214 355.48L835.096 353.167C839.452 351.934 843.036 350.353 845.85 348.349ZM857.991 348.233C862 349.698 865.7 351.432 869.054 353.475L867.666 355.595C864.081 353.321 860.42 351.51 856.642 350.199L857.991 348.233ZM884.78 347.925V350.546C881.388 351.934 877.572 353.051 873.255 353.861L872.908 351.163C877.418 350.353 881.388 349.274 884.78 347.925ZM880.077 320.674L882.698 321.715C880.694 326.572 878.651 330.426 876.57 333.278C878.42 333.086 880.27 332.854 882.12 332.546C882.852 331.235 883.623 329.886 884.433 328.46L886.861 329.347C883.238 335.591 880.27 340.062 877.88 342.722C880.655 342.221 883.469 341.527 886.244 340.679V343.184C882.159 344.418 878.227 345.227 874.488 345.689L873.756 343.184C874.257 342.991 874.681 342.722 875.028 342.413C876.57 340.949 878.42 338.52 880.578 335.051C878.343 335.398 876.107 335.707 873.872 335.976L873.178 333.432C873.602 333.278 873.987 332.931 874.334 332.43C876.531 329 878.458 325.068 880.077 320.674ZM890.6 324.914H886.784V322.293H903.705V324.028C903.088 327.497 902.471 330.465 901.854 332.931H906.75V334.473C905.94 339.792 904.167 344.302 901.392 347.964C903.396 350.122 905.747 352.011 908.445 353.707L906.711 356.019C904.013 354.246 901.662 352.242 899.735 350.006C897.422 352.473 894.57 354.477 891.255 356.096L889.713 353.552C892.951 351.972 895.687 350.006 897.884 347.694C895.572 344.572 893.799 341.026 892.604 337.094C891.448 345.227 888.904 351.51 885.011 355.904L882.968 354.092C887.979 348.465 890.523 339.445 890.6 326.996V324.914ZM899.503 345.767C901.739 342.799 903.203 339.33 903.974 335.36H898.617C899.311 332.97 900.043 329.501 900.852 324.914H893.298V326.996C893.298 328.422 893.259 329.809 893.182 331.12C894.146 336.747 896.266 341.642 899.503 345.767ZM945.486 324.837V333.471H942.672V327.535H915.615V333.471H912.801V324.837H927.602C927.139 323.527 926.677 322.332 926.137 321.253L929.259 320.713C929.76 321.946 930.261 323.295 930.724 324.837H945.486ZM918.313 332.006H939.897V334.704H918.313V332.006ZM912.415 339.253H945.987V341.912H935.079V351.047C935.079 352.203 935.619 352.82 936.737 352.82H941.863C942.557 352.82 943.019 352.55 943.289 352.049C943.597 351.471 943.829 349.737 943.983 346.807L946.604 347.655C946.373 351.355 945.91 353.629 945.216 354.4C944.6 355.094 943.675 355.48 942.364 355.48H935.85C933.46 355.48 932.304 354.169 932.304 351.625V341.912H925.829V342.182C925.713 345.959 924.672 349.004 922.745 351.317C920.818 353.398 917.696 355.056 913.379 356.25L911.799 353.784C916 352.704 918.929 351.278 920.625 349.467C922.167 347.617 922.976 345.188 923.092 342.182V341.912H912.415V339.253ZM952.154 324.606H960.942C960.403 323.295 959.786 322.101 959.092 321.021L962.021 320.559C962.638 321.754 963.216 323.103 963.794 324.606H971.85C972.505 323.257 973.006 321.869 973.315 320.482L976.283 320.867C975.897 322.178 975.396 323.411 974.741 324.606H983.298V327.15H969.152V330.812H981.255V333.278H969.152V337.017H984.57V339.561H950.882V337.017H966.3V333.278H954.313V330.812H966.3V327.15H952.154V324.606ZM966.57 340.563L969.422 340.871C969.268 341.874 969.075 342.837 968.805 343.685H983.722V346.306H970.231C972.891 349.852 978.017 352.28 985.61 353.552L984.146 356.173C975.666 354.477 970.154 351.317 967.61 346.692C966.762 348.31 965.645 349.698 964.334 350.931C961.829 353.206 957.435 354.979 951.152 356.289L949.996 353.591C955.585 352.55 959.593 351.047 962.06 349.081C963.062 348.272 963.872 347.347 964.527 346.306H951.769V343.685H965.799C966.146 342.683 966.415 341.642 966.57 340.563ZM1002.61 324.683H1013.86C1020.18 324.683 1023.35 327.381 1023.35 332.777C1023.35 338.212 1020.15 340.949 1013.82 340.949H1005.77V352.203H1002.61V324.683ZM1005.77 327.42V338.212H1013.67C1015.91 338.212 1017.52 337.749 1018.6 336.863C1019.64 335.976 1020.18 334.627 1020.18 332.777C1020.18 330.927 1019.64 329.578 1018.57 328.769C1017.49 327.844 1015.87 327.42 1013.67 327.42H1005.77ZM1035.86 331.737C1038.82 331.737 1041.21 332.739 1042.99 334.82C1044.68 336.786 1045.53 339.253 1045.53 342.259C1045.53 345.227 1044.68 347.694 1043.03 349.621C1041.21 351.702 1038.82 352.743 1035.86 352.743C1032.85 352.743 1030.5 351.702 1028.73 349.621C1027.03 347.694 1026.18 345.227 1026.18 342.259C1026.18 339.253 1027.03 336.786 1028.73 334.82C1030.5 332.739 1032.85 331.737 1035.86 331.737ZM1035.86 334.319C1033.74 334.319 1032.08 335.128 1030.92 336.747C1029.84 338.212 1029.34 340.023 1029.34 342.259C1029.34 344.456 1029.84 346.268 1030.92 347.732C1032.08 349.351 1033.74 350.161 1035.86 350.161C1037.94 350.161 1039.6 349.351 1040.83 347.732C1041.87 346.268 1042.41 344.418 1042.41 342.259C1042.41 340.023 1041.87 338.212 1040.83 336.747C1039.6 335.128 1037.94 334.319 1035.86 334.319ZM1047.34 332.276H1050.73L1055.63 348.426L1060.25 332.276H1063.14L1067.77 348.426L1072.66 332.276H1076.06L1069.27 352.203H1066.34L1061.72 336.169L1057.01 352.203H1054.12L1047.34 332.276ZM1086.84 331.737C1090.04 331.737 1092.47 332.816 1094.09 334.974C1095.55 336.901 1096.32 339.638 1096.4 343.107H1080.68C1080.83 345.343 1081.41 347.077 1082.49 348.31C1083.57 349.544 1085.07 350.161 1086.96 350.161C1088.58 350.161 1089.93 349.737 1090.93 348.927C1091.78 348.233 1092.43 347.193 1092.93 345.805H1096.02C1095.55 347.732 1094.67 349.274 1093.32 350.507C1091.66 351.972 1089.54 352.743 1086.96 352.743C1084.11 352.743 1081.79 351.779 1080.1 349.929C1078.32 348.002 1077.48 345.458 1077.48 342.221C1077.48 339.291 1078.29 336.824 1079.98 334.859C1081.68 332.777 1083.95 331.737 1086.84 331.737ZM1086.92 334.319C1085.15 334.319 1083.72 334.897 1082.64 336.053C1081.56 337.21 1080.95 338.752 1080.75 340.717H1093.2C1092.82 336.439 1090.7 334.319 1086.92 334.319ZM1108.76 331.737C1109.84 331.737 1110.77 331.891 1111.5 332.199V335.283C1110.5 334.974 1109.49 334.859 1108.53 334.859C1106.99 334.859 1105.68 335.514 1104.64 336.901C1103.56 338.212 1103.06 339.792 1103.06 341.642V352.203H1100.01V332.276H1103.06V335.745C1103.6 334.589 1104.29 333.664 1105.14 333.009C1106.18 332.161 1107.37 331.737 1108.76 331.737ZM1114.48 324.683H1125.73C1132.05 324.683 1135.21 327.381 1135.21 332.777C1135.21 338.212 1132.01 340.949 1125.69 340.949H1117.64V352.203H1114.48V324.683ZM1117.64 327.42V338.212H1125.54C1127.77 338.212 1129.39 337.749 1130.47 336.863C1131.51 335.976 1132.05 334.627 1132.05 332.777C1132.05 330.927 1131.51 329.578 1130.43 328.769C1129.35 327.844 1127.74 327.42 1125.54 327.42H1117.64ZM1147.72 331.737C1150.69 331.737 1153.08 332.739 1154.85 334.82C1156.55 336.786 1157.4 339.253 1157.4 342.259C1157.4 345.227 1156.55 347.694 1154.89 349.621C1153.08 351.702 1150.69 352.743 1147.72 352.743C1144.72 352.743 1142.37 351.702 1140.59 349.621C1138.9 347.694 1138.05 345.227 1138.05 342.259C1138.05 339.253 1138.9 336.786 1140.59 334.82C1142.37 332.739 1144.72 331.737 1147.72 331.737ZM1147.72 334.319C1145.6 334.319 1143.95 335.128 1142.79 336.747C1141.71 338.212 1141.21 340.023 1141.21 342.259C1141.21 344.456 1141.71 346.268 1142.79 347.732C1143.95 349.351 1145.6 350.161 1147.72 350.161C1149.81 350.161 1151.46 349.351 1152.7 347.732C1153.74 346.268 1154.28 344.418 1154.28 342.259C1154.28 340.023 1153.74 338.212 1152.7 336.747C1151.46 335.128 1149.81 334.319 1147.72 334.319ZM1163.95 324.76C1164.6 324.76 1165.14 324.953 1165.61 325.415C1166.07 325.801 1166.3 326.34 1166.3 327.034C1166.3 327.689 1166.07 328.229 1165.61 328.692C1165.14 329.116 1164.6 329.347 1163.95 329.347C1163.29 329.347 1162.75 329.116 1162.29 328.692C1161.83 328.229 1161.64 327.689 1161.64 327.034C1161.64 326.34 1161.83 325.801 1162.29 325.415C1162.75 324.953 1163.29 324.76 1163.95 324.76ZM1162.41 332.276H1165.49V352.203H1162.41V332.276ZM1180.59 331.737C1185.53 331.737 1188.03 334.473 1188.03 339.946V352.203H1184.95V340.178C1184.95 336.285 1183.18 334.358 1179.71 334.358C1178.32 334.358 1177.13 334.859 1176.12 335.861C1175.04 336.94 1174.47 338.366 1174.35 340.178V352.203H1171.27V332.276H1174.35V335.206C1175.04 334.088 1175.93 333.24 1177.01 332.662C1178.09 332.045 1179.28 331.737 1180.59 331.737ZM1198.12 325.839V332.276H1203.05V334.859H1198.12V347.54C1198.12 348.272 1198.23 348.812 1198.54 349.12C1198.81 349.428 1199.31 349.621 1200 349.621H1202.55V352.203H1199.54C1197.92 352.203 1196.73 351.779 1196.03 350.931C1195.38 350.161 1195.07 349.043 1195.07 347.54V334.859H1191.06V332.276H1195.07V327.111L1198.12 325.839ZM1253.1 323.527V330.657H1250.36V326.071H1232.09V330.619H1229.35V323.527H1239.53C1239.22 322.602 1238.84 321.715 1238.45 320.906L1241.27 320.443C1241.65 321.368 1242 322.37 1242.38 323.527H1253.1ZM1232.13 329.154H1250.28V331.544H1242.5V334.358H1251.48V348.233H1230.9V334.358H1239.88V331.544H1232.13V329.154ZM1248.78 345.844V342.413H1242.5V345.844H1248.78ZM1239.88 345.844V342.413H1233.59V345.844H1239.88ZM1233.59 340.178H1239.88V336.747H1233.59V340.178ZM1242.5 336.747V340.178H1248.78V336.747H1242.5ZM1245.12 349.351C1248.4 350.585 1251.4 352.049 1254.1 353.822L1252.56 356.173C1249.71 354.169 1246.74 352.55 1243.73 351.394L1245.12 349.351ZM1237.18 349.313L1239.15 351.086C1236.52 353.013 1233.29 354.67 1229.51 356.096L1227.81 353.899C1231.51 352.589 1234.64 351.047 1237.18 349.313ZM1221.3 321.291C1224 323.218 1226.31 325.146 1228.16 327.111L1226.19 329.077C1224.5 327.227 1222.22 325.261 1219.33 323.18L1221.3 321.291ZM1220.64 330.465C1223.19 332.392 1225.35 334.358 1227.08 336.285L1225.12 338.25C1223.57 336.4 1221.41 334.473 1218.68 332.392L1220.64 330.465ZM1225.54 341.026L1227.97 341.989C1226.12 346.769 1224.11 351.278 1221.88 355.518L1219.33 354.4C1221.72 350.045 1223.77 345.574 1225.54 341.026ZM1272.72 355.595H1267.74L1267.17 352.897C1268.79 352.974 1270.29 353.051 1271.75 353.051C1272.91 353.051 1273.49 352.473 1273.49 351.394V335.36H1258.34V332.623H1291.18V335.36H1276.3V352.088C1276.3 354.4 1275.11 355.595 1272.72 355.595ZM1264.28 339.6L1267.01 340.178C1265.39 345.497 1263.16 350.083 1260.23 353.938L1257.8 352.435C1260.77 348.58 1262.93 344.302 1264.28 339.6ZM1284.63 339.214C1287.25 343.377 1289.56 347.771 1291.49 352.473L1288.94 353.629C1286.86 348.503 1284.59 343.994 1282.12 340.062L1284.63 339.214ZM1261.89 322.833H1287.75V325.531H1261.89V322.833ZM1296.5 327.227H1312.46C1311.41 325.184 1310.14 323.257 1308.6 321.445L1311.38 320.443C1312.84 322.293 1314.15 324.567 1315.38 327.227H1330.11V330.002H1324.1C1322.21 336.092 1319.35 341.218 1315.58 345.304C1319.66 348.773 1324.79 351.625 1330.96 353.899L1329.45 356.212C1323.06 353.822 1317.81 350.854 1313.65 347.27C1309.26 351.317 1303.78 354.285 1297.23 356.173L1295.77 353.745C1302.24 352.011 1307.56 349.274 1311.72 345.497C1307.25 341.103 1304.17 335.938 1302.43 330.002H1296.5V327.227ZM1305.17 330.002C1306.83 335.206 1309.64 339.715 1313.65 343.57C1317.08 339.831 1319.59 335.321 1321.21 330.002H1305.17ZM1335.12 326.263L1334.58 323.642C1338.94 323.141 1342.79 322.216 1346.14 320.906L1347.11 323.527C1345.68 324.028 1344.18 324.49 1342.6 324.876V331.274H1347.26V333.934H1342.6V335.976C1344.29 337.788 1345.99 339.831 1347.68 342.066L1346.18 344.379C1344.79 341.912 1343.6 339.908 1342.6 338.366V356.058H1339.94V338.212C1338.74 342.066 1337.12 345.574 1335.04 348.734L1333.85 345.689C1336.51 342.221 1338.4 338.328 1339.55 333.934H1334.7V331.274H1339.94V325.492C1338.4 325.801 1336.78 326.032 1335.12 326.263ZM1350.81 328.961H1365.76V336.169H1350.81V328.961ZM1363.14 334.088V331.043H1353.43V334.088H1363.14ZM1353.7 343.685H1362.6V351.124H1353.7V343.685ZM1360.29 349.12V345.689H1356.01V349.12H1360.29ZM1357.86 320.405C1358.4 321.484 1358.9 322.717 1359.36 324.066H1368.92V326.533H1347.99V324.066H1356.67C1356.16 322.91 1355.62 321.831 1355.01 320.867L1357.86 320.405ZM1364.72 355.981H1361.98L1361.37 353.591L1363.95 353.707C1364.91 353.707 1365.41 353.09 1365.41 351.856V341.026H1351V355.904H1348.38V338.636H1368.04V352.396C1368.04 354.786 1366.92 355.981 1364.72 355.981ZM1380.76 346.73C1382.14 346.73 1383.3 347.193 1384.3 348.118C1385.26 349.043 1385.77 350.199 1385.77 351.587C1385.77 352.936 1385.26 354.092 1384.3 355.017C1383.3 355.942 1382.14 356.405 1380.76 356.405C1379.37 356.405 1378.17 355.942 1377.21 355.056C1376.21 354.131 1375.74 352.974 1375.74 351.587C1375.74 350.199 1376.21 349.043 1377.21 348.118C1378.17 347.193 1379.37 346.73 1380.76 346.73ZM1380.76 348.734C1379.95 348.734 1379.25 349.004 1378.71 349.582C1378.1 350.122 1377.83 350.777 1377.83 351.587C1377.83 352.358 1378.1 353.013 1378.71 353.552C1379.25 354.092 1379.95 354.4 1380.76 354.4C1381.53 354.4 1382.22 354.092 1382.8 353.552C1383.38 353.013 1383.68 352.358 1383.68 351.587C1383.68 350.777 1383.38 350.122 1382.8 349.582C1382.22 349.004 1381.53 348.734 1380.76 348.734Z" fill="black"/>
<defs>
<linearGradient id="paint0_linear_26_41" x1="960" y1="0" x2="960" y2="474" gradientUnits="userSpaceOnUse">
<stop stop-color="white"/>
<stop offset="1" stop-color="#F2F2F2"/>
</linearGradient>
<pattern id="pattern0_26_41" patternUnits="userSpaceOnUse" patternTransform="matrix(122 0 0 122 0 0)" preserveAspectRatio="none" viewBox="0 0 122 122" width="1" height="1">
<g id="pattern0_26_41_inner">
<g clip-path="url(#clip0_26_41)">
<rect width="61" height="61" fill="#EDEDED"/>
<rect x="61" y="61" width="61" height="61" fill="#EDEDED"/>
</g>
</g>
</pattern><clipPath id="clip0_26_41">
<rect width="122" height="122" fill="white"/>
</clipPath>
</defs>
</svg>
